<svg width="26" height="25" viewBox="0 0 26 25" fill="none" xmlns="http://www.w3.org/2000/svg">
<path d="M13.3887 11.9507V11.9167C13.3817 11.9282 13.3742 11.9397 13.3667 11.9507H13.3887Z" fill="#E87722"/>
<path d="M21.8527 2.05798H3.27893C2.38993 2.05798 1.66895 2.76177 1.66895 3.62916V22.4203C1.66895 23.2872 2.38993 23.991 3.27893 23.991H21.8527C22.743 23.991 23.464 23.2868 23.464 22.4203V3.62916C23.464 2.76133 22.7425 2.05798 21.8527 2.05798ZM8.27514 20.4187H4.98329V10.5149H8.27514V20.4187ZM6.62943 9.16204H6.60739C5.50319 9.16204 4.78882 8.40136 4.78882 7.45107C4.78882 6.4796 5.52524 5.7401 6.65104 5.7401C7.77728 5.7401 8.47005 6.4796 8.4921 7.45107C8.4921 8.40136 7.77684 9.16204 6.62943 9.16204ZM20.1457 20.4187H16.8538V15.1191C16.8538 13.7883 16.3776 12.8799 15.1865 12.8799C14.2772 12.8799 13.7357 13.4924 13.4971 14.0842C13.4103 14.2954 13.3891 14.5908 13.3891 14.8872V20.4183H10.0972C10.0972 20.4183 10.1405 11.4427 10.0972 10.5145H13.3891V11.9163C13.8265 11.2417 14.6088 10.2808 16.3564 10.2808C18.522 10.2808 20.1461 11.6967 20.1461 14.739V20.4187H20.1457Z" fill="#E87722"/>
</svg>
