<svg width="26" height="21" viewBox="0 0 26 21" fill="none" xmlns="http://www.w3.org/2000/svg">
<path d="M25.9995 0.168087C24.9057 0.946836 23.6947 1.54245 22.4131 1.932C21.7252 1.13364 20.811 0.567784 19.7941 0.31096C18.7772 0.0541363 17.7067 0.118739 16.7274 0.49603C15.7481 0.873321 14.9072 1.5451 14.3184 2.4205C13.7297 3.29591 13.4215 4.3327 13.4355 5.39067V6.54355C11.4283 6.59609 9.43937 6.14674 7.64585 5.23554C5.85233 4.32434 4.3099 2.97956 3.15594 1.32097C3.15594 1.32097 -1.41277 11.697 8.86683 16.3085C6.51454 17.9202 3.71236 18.7283 0.871582 18.6143C11.1512 24.3787 23.7151 18.6143 23.7151 5.35608C23.7141 5.03495 23.6835 4.71461 23.6238 4.39918C24.7895 3.23879 25.6121 1.77373 25.9995 0.168087Z" fill="#E87722"/>
</svg>
