<svg width="26" height="19" viewBox="0 0 26 19" fill="none" xmlns="http://www.w3.org/2000/svg">
<path d="M24.6027 3.37812C24.467 2.83097 24.1907 2.32965 23.8016 1.9248C23.4126 1.51994 22.9246 1.22589 22.3869 1.07235C20.4223 0.588135 12.5641 0.588135 12.5641 0.588135C12.5641 0.588135 4.70594 0.588135 2.74139 1.11846C2.20371 1.27201 1.71569 1.56606 1.32663 1.97091C0.937569 2.37577 0.661245 2.87709 0.525567 3.42423C0.166026 5.43666 -0.0098455 7.47814 0.000164639 9.523C-0.0126514 11.5833 0.163231 13.6403 0.525567 15.6679C0.675146 16.198 0.957661 16.6803 1.34582 17.068C1.73397 17.4558 2.21464 17.7359 2.74139 17.8814C4.70594 18.4117 12.5641 18.4117 12.5641 18.4117C12.5641 18.4117 20.4223 18.4117 22.3869 17.8814C22.9246 17.7279 23.4126 17.4338 23.8016 17.029C24.1907 16.6241 24.467 16.1228 24.6027 15.5756C24.9595 13.5784 25.1353 11.5525 25.1281 9.523C25.1409 7.46274 24.965 5.4057 24.6027 3.37812V3.37812Z" fill="#E87722"/>
<path d="M9.99414 13.2929L16.5617 9.52299L9.99414 5.75305V13.2929Z" fill="white"/>
</svg>
