<?xml version="1.0" encoding="utf-8"?>
<!-- Generator: Adobe Illustrator 26.4.1, SVG Export Plug-In . SVG Version: 6.00 Build 0)  -->
<svg version="1.1" id="Layer_1" xmlns="http://www.w3.org/2000/svg" xmlns:xlink="http://www.w3.org/1999/xlink" x="0px" y="0px"
     viewBox="0 0 490 127" style="enable-background:new 0 0 490 127;" xml:space="preserve">
<style type="text/css">
	.st0{fill:#F47D4C;}
	.st1{fill:#231F20;}
	.st2{fill:none;stroke:#231F20;stroke-miterlimit:10;}
	.st3{fill:#FFFFFF;}
</style>
  <path class="st0" d="M191.5,94.9c-17.3,24.8-51.4,30.9-76.2,13.6c-5.3-3.7-9.9-8.3-13.6-13.6h-9.8c17.3,30.2,55.8,40.6,86,23.2
	c9.7-5.6,17.7-13.6,23.2-23.2H191.5z M146.6,8.9c17.9,0,34.6,8.7,44.8,23.4h9.7c-17.4-30.2-55.9-40.5-86-23.2
	c-9.6,5.5-17.6,13.5-23.2,23.2h9.8C112,17.6,128.8,8.9,146.6,8.9z"/>
  <path class="st0" d="M9.5,42.9H0v9.5h9.5V42.9z"/>
  <g id="darkModeBlack">
	<path class="st1" d="M9.5,52.4H0v32h9.5V52.4z"/>
    <path class="st1" d="M55.6,55.5l5.6-2.9c-2.9-6.5-9.4-10.7-16.5-10.5c-12.4,0-20.7,9.2-20.8,21.6c-0.1,12.4,8.2,21.4,20.7,21.4
		s17.1-10.7,17.1-10.7l-5.2-2.9c-2.4,3.8-6.5,6.1-11,6.1c-7.7,0-11.5-6.8-11.5-13.9s3.3-13.9,11.4-13.9C53,49.9,55.6,55.5,55.6,55.5
		z"/>
    <path class="st1" d="M104.1,55.5l5.6-2.9c-2.9-6.5-9.4-10.7-16.5-10.5c-12.4,0-20.7,9.2-20.8,21.6c-0.1,12.4,8.2,21.4,20.7,21.4
		c12.5,0,17.1-10.7,17.1-10.7l-5.2-2.9c-2.4,3.8-6.5,6.1-11,6.1c-7.7,0-11.5-6.8-11.5-13.9S85.8,49.8,94,49.8
		C101.5,49.9,104.1,55.5,104.1,55.5z"/>
    <path class="st1" d="M216.2,55.5l5.6-2.9c-2.9-6.5-9.4-10.7-16.5-10.5c-12.4,0-20.7,9.2-20.8,21.6s8.2,21.4,20.7,21.4
		s17.1-10.7,17.1-10.7l-5.2-2.9c-2.4,3.8-6.5,6.1-11,6.1c-7.6,0-11.5-6.8-11.5-13.9s3.3-13.9,11.4-13.9
		C213.6,49.9,216.2,55.5,216.2,55.5z"/>
    <path class="st1" d="M129.9,42.8h-10.2l12.8,41.6h6.7l8-24.6l8.1,24.5l6.6,0.1L175,42.8h-9.2l-7.1,24.5l-7.6-24.5h-6.6l-7.9,24.3
		L129.9,42.8z"/>
    <path class="st2" d="M244,29.2v65.3"/>
    <path class="st1" d="M269.4,58.4v-2.3c0.2,0.1,0.5,0.1,0.7,0.1c0.9,0,1.3-0.5,1.3-1.5V42.5h2.2v12.2c0,2.6-1,3.9-3.2,3.9
		C270,58.6,269.7,58.5,269.4,58.4z"/>
    <path class="st1" d="M275.4,54.7V42.5h2.2v12.4c0,1.1,0.4,1.6,1.1,1.6c0.7,0,1.1-0.4,1.1-1.6V42.5h2.1v12.2c0,2.6-1.1,4-3.3,4
		C276.4,58.7,275.4,57.2,275.4,54.7z"/>
    <path class="st1" d="M283.9,42.5h2.8l2.2,9.6v-9.6h2v16h-2.4l-2.7-11.7v11.7h-2v-16H283.9z"/>
    <path class="st1" d="M294.5,44.7h-2.3v-2.3h6.9v2.3h-2.4v13.7h-2.2V44.7z"/>
    <path class="st1" d="M300.2,54.7v-8.4c0-2.6,1.2-4,3.4-4c2.2,0,3.4,1.5,3.4,4v8.4c0,2.6-1.2,4-3.4,4
		C301.4,58.7,300.2,57.2,300.2,54.7z M304.7,54.9v-8.7c0-1.1-0.5-1.6-1.1-1.6s-1.1,0.4-1.1,1.6v8.7c0,1.1,0.4,1.6,1.1,1.6
		C304.3,56.5,304.7,55.9,304.7,54.9z"/>
    <path class="st1" d="M308.4,54.7v-1h2.1v1.1c0,1.1,0.5,1.6,1.1,1.6s1.1-0.4,1.1-1.6s-0.4-2.2-1.9-3.6c-1.9-1.9-2.5-3.1-2.5-5
		c0-2.5,1.1-4,3.3-4c2.2,0,3.2,1.5,3.2,4v0.7h-2.1v-0.8c0-1.1-0.4-1.6-1.1-1.6c-0.7,0-1.1,0.4-1.1,1.5c0,1.1,0.5,2,1.9,3.4
		c1.9,1.9,2.4,3.1,2.4,5.1c0,2.6-1.2,4.1-3.4,4.1C309.2,58.6,308.4,57.2,308.4,54.7z"/>
    <path class="st1" d="M319.9,54.7v-8.6c0-2.5,1.1-3.9,3.3-3.9c2.2,0,3.3,1.5,3.3,3.9v1.7h-2.1v-1.9c0-1-0.4-1.5-1.1-1.5
		c-0.7,0-1.1,0.4-1.1,1.5v8.9c0,1.1,0.4,1.5,1.1,1.5c0.7,0,1.1-0.4,1.1-1.5v-2.4h2.1v2.3c0,2.5-1.1,3.9-3.3,3.9
		C321,58.6,319.9,57.2,319.9,54.7z"/>
    <path class="st1" d="M327.9,54.7v-8.4c0-2.6,1.2-4,3.4-4c2.2,0,3.4,1.5,3.4,4v8.4c0,2.6-1.2,4-3.4,4
		C329.1,58.7,327.9,57.2,327.9,54.7z M332.4,54.9v-8.7c0-1.1-0.4-1.6-1.1-1.6c-0.7,0-1.1,0.4-1.1,1.6v8.7c0,1.1,0.4,1.6,1.1,1.6
		C332,56.5,332.4,55.9,332.4,54.9z"/>
    <path class="st1" d="M336.4,42.5h2.8l2.2,9.6v-9.6h2v16h-2.3l-2.7-11.7v11.7h-2V42.5z"/>
    <path class="st1" d="M347,44.7h-2.3v-2.3h6.9v2.3h-2.3v13.7h-2.2V44.7H347z"/>
    <path class="st1" d="M352.9,42.5h3.3c2.3,0,3.3,1.2,3.3,3.7v1c0,1.6-0.5,2.7-1.5,3.1v0.1c1.1,0.4,1.5,1.6,1.5,3.4v2.8
		c0,0.7,0,1.3,0.2,1.9h-2.2c-0.2-0.6-0.3-1.3-0.2-2v-2.9c0-1.5-0.4-2-1.4-2h-0.8v6.8h-2.2V42.5L352.9,42.5z M355.9,49.3
		c0.8,0,1.3-0.4,1.3-1.7v-1.2c0-1.1-0.4-1.6-1.1-1.6h-1v4.6L355.9,49.3L355.9,49.3z"/>
    <path class="st1" d="M363,42.5h3l2.3,16h-2.2l-0.4-3.2v0.1h-2.5l-0.4,3.1h-2.1L363,42.5z M365.4,53.1l-1-7.9l-1,7.9H365.4z"/>
    <path class="st1" d="M373.2,42.5h2.2v13.7h3.6v2.3h-5.9L373.2,42.5z"/>
    <path class="st1" d="M380.2,54.7v-8.4c0-2.6,1.2-4,3.4-4c2.2,0,3.4,1.5,3.4,4v8.4c0,2.6-1.2,4-3.4,4
		C381.4,58.7,380.2,57.2,380.2,54.7z M384.7,54.9v-8.7c0-1.1-0.5-1.6-1.1-1.6s-1.1,0.4-1.1,1.6v8.7c0,1.1,0.4,1.6,1.1,1.6
		C384.3,56.5,384.7,55.9,384.7,54.9z"/>
    <path class="st1" d="M388.4,54.7v-1h2.1v1.1c0,1.1,0.5,1.6,1.1,1.6s1.1-0.4,1.1-1.6s-0.4-2.2-1.9-3.6c-1.9-1.9-2.5-3.1-2.5-5
		c0-2.5,1.1-4,3.3-4c2.2,0,3.2,1.5,3.2,4v0.7h-2.1v-0.8c0-1.1-0.4-1.6-1.1-1.6c-0.7,0-1.1,0.4-1.1,1.5c0,1.1,0.5,2,1.9,3.4
		c1.9,1.9,2.4,3.1,2.4,5.1c0,2.6-1.2,4.1-3.4,4.1C389.2,58.6,388.4,57.2,388.4,54.7z"/>
    <path class="st1" d="M488.1,64.1H264.2v20h223.9V64.1z"/>
    <path class="st1" d="M489.3,83.6c0,0.7,0.2,0.5,0.2,0.6C489.5,82.9,489.2,83.6,489.3,83.6z"/>
    <path class="st1" d="M488.8,71.7l0.1,0.2l-0.2-1.8L488.8,71.7z"/>
    <path class="st1" d="M484.5,63.4c0.5,0.1,1,0.2,1.5,0.1c0.7,0,1.7,0,2.7-0.1c0,0.6,0,1.1,0,1.7c0,0.3,0,0.6,0,0.8v0.6l-0.1,0.3
		l0.3,0.9c0-1.4-0.1-3-0.1-4.4h-2.7C485.5,63.4,485,63.4,484.5,63.4z"/>
    <path class="st1" d="M478.6,62.6c0.4,0.1-1.3,0.1,1.4,0h-0.2H478.6z"/>
    <path class="st1" d="M479.7,62.6C480.9,62.6,479,62.5,479.7,62.6L479.7,62.6z"/>
    <path class="st1" d="M474.3,62.7l1.5-0.1c-0.3-0.1-1.7-0.1-1.2-0.2C473.1,62.5,473.4,62.6,474.3,62.7z"/>
    <path class="st1" d="M472.9,62.9l0.8-0.1C473.4,62.8,473.1,62.9,472.9,62.9z"/>
    <path class="st1" d="M475.3,62.8l-1.7,0.1c0.2,0.1,0.2,0.2,0.8,0C474.3,62.9,474.6,62.9,475.3,62.8z"/>
    <path class="st1" d="M476.3,62.8c0.9,0.1,2,0.1,0.4,0.2C479.7,63,479.2,62.8,476.3,62.8z"/>
    <path class="st1" d="M483.9,63.7l1.2,0.1l1-0.1C485.6,63.8,483.9,63.6,483.9,63.7z"/>
    <path class="st1" d="M464.7,62.5c-0.1,0.1,0.5,0.2,0.6,0.3l1.1-0.1C465.9,62.7,465.3,62.6,464.7,62.5z"/>
    <path class="st1" d="M465.3,62.8l-1.7,0.1C465.1,62.9,465.4,62.9,465.3,62.8z"/>
    <path class="st1" d="M472.6,63.3l2.8-0.2l-3.4,0.2H472.6z"/>
    <path class="st1" d="M458.2,62.5l1-0.2l-1.8,0.3L458.2,62.5z"/>
    <path class="st1" d="M453.9,62.5c0.7-0.1-1-0.2-0.2-0.3c-1,0-2.1,0.1-3.1,0.3C451.7,62.4,452.8,62.4,453.9,62.5z"/>
    <path class="st1" d="M449.1,62.6c0.5,0,1-0.1,1.5-0.2C450.1,62.5,449.6,62.5,449.1,62.6z"/>
    <path class="st1" d="M460.7,62.9c-0.4-0.2-0.9-0.2-1.3-0.2l0.7,0.2H460.7z"/>
    <path class="st1" d="M468.1,63.1c-1,0.1-3.1,0.2-1.1,0.4C467.7,63.4,466.6,63.3,468.1,63.1z"/>
    <path class="st1" d="M461.7,63.2l1.8,0.1c0-0.1-0.4-0.1,0.1-0.2L461.7,63.2z"/>
    <path class="st1" d="M460.8,63.2l0.9-0.1h-0.6L460.8,63.2z"/>
    <path class="st1" d="M452.2,62.8c-0.9,0.1-1.7,0.1-2.6,0.1c1,0.1,2.1,0.1,3.1,0.1C452.8,62.9,453.3,62.8,452.2,62.8z"/>
    <path class="st1" d="M452.9,63c0.6,0,1.1,0,1.7-0.1c-0.6,0-1.2,0-1.9,0C452.6,63,452.6,63,452.9,63z"/>
    <path class="st1" d="M446.4,62.7l1.4,0.1C447.3,62.7,446.9,62.7,446.4,62.7z"/>
    <path class="st1" d="M455.6,62.8c-0.4,0-0.7,0.1-1,0.1l1.3-0.1C455.8,62.9,455.7,62.8,455.6,62.8z"/>
    <path class="st1" d="M437.2,64.3c1.3-0.3,2.7-0.4,4-0.2c1.7-0.1,0.6-0.8-0.9-1.2c0,0.1,0,0.2-1.8,0.3c0.6,0.1,4,0.2,2.5,0.4
		c-1,0.1-2.1,0-3.1-0.2c1,0.2-3,0.4-2.5,0.7l2.1-0.1C437.3,64.2,436.6,64.2,437.2,64.3z"/>
    <path class="st1" d="M443.6,63h0.7c-0.8,0-1.4-0.1-2.5-0.3c-1.2,0.1-1.5,0.2-1.6,0.2h3.6L443.6,63z"/>
    <path class="st1" d="M447.6,63c-0.6,0.2-2.3,0.3-1.3,0.5c0.9,0,1.9-0.1,2.8-0.3C445.7,63.3,450.2,63.1,447.6,63c0.7,0,1.3,0,1.9,0
		l-1.8-0.1h0.1c0.1,0,0.2,0,0,0h-0.1C447.7,62.9,447.7,62.9,447.6,63c-1-0.1-0.2-0.1,0.1-0.1l-3.5,0.1C445.1,63,446,63,447.6,63z"/>
    <path class="st1" d="M463.7,63.9c0.4-0.1,0.9-0.1,1.3-0.1c0.7,0.1,0,0.1,0,0.2c0.5-0.1,1.7-0.2,0.2-0.3H465c-1,0-2-0.2-3-0.4
		C462.5,63.6,463.1,63.8,463.7,63.9z"/>
    <path class="st1" d="M455.6,63.5l-2.9,0.1l1.5,0.2l-0.1-0.1C455.7,63.7,455.4,63.6,455.6,63.5z"/>
    <path class="st1" d="M439.7,62.8l0.4-0.2l-1.7,0.3L439.7,62.8z"/>
    <path class="st1" d="M435.9,62.8l0.2-0.2l-1,0.2H435.9z"/>
    <path class="st1" d="M285.7,82.9l0.9-0.1L285.7,82.9z"/>
    <path class="st1" d="M279.5,82.9l-0.1,0.1C279.6,83,279.7,82.9,279.5,82.9z"/>
    <path class="st1" d="M343.1,62.9c-1.2-0.2-2.6-0.5-2.5-0.2l0.4,0.2C341.7,62.8,342.4,62.8,343.1,62.9z"/>
    <path class="st1" d="M279.6,64.2l0.4,0.1l0.8-0.2L279.6,64.2z"/>
    <path class="st1" d="M278.7,65.1l-1.6-0.1C277.4,65,277.9,65,278.7,65.1z"/>
    <path class="st1" d="M319.5,82.7l1-0.2C318.9,82.5,319.6,82.6,319.5,82.7z"/>
    <path class="st1" d="M397.2,62.9c-1.1-0.1-1.9-0.1-2.7-0.1C395.4,63,396.3,63,397.2,62.9z"/>
    <path class="st1" d="M283.2,85.3c0.5,0,0.8-0.1,0.7-0.1C283.4,85.2,283.1,85.2,283.2,85.3z"/>
    <path class="st1" d="M391.4,62.8l0.6,0.1c0.8,0,1.6-0.1,2.5-0.1C393.5,62.7,392.5,62.7,391.4,62.8z"/>
    <path class="st1" d="M424.6,63.6c-0.2,0-0.3,0.1-0.3,0.1C424.4,63.7,424.5,63.6,424.6,63.6z"/>
    <path class="st1" d="M383.5,64.1C383.6,64.2,383.6,64.2,383.5,64.1L383.5,64.1z"/>
    <path class="st1" d="M421.9,62.9l-1-0.1L421.9,62.9z"/>
    <path class="st1" d="M376.3,83.5h0.2C377.3,83.4,377,83.4,376.3,83.5z"/>
    <path class="st1" d="M319.4,65.3c0.9-0.2,1.9-0.3,2.9-0.2l-1-0.6L319.4,65.3z"/>
    <path class="st1" d="M300.5,82.9l-2-0.2c2.4-0.3,4.2-0.2,2.3-0.5c-0.3,0.7-7.9,0.1-8.1,0.8l-1.3-0.1c0.4,0,0.5,0,0.8,0
		c-2.6-0.3-1.9,0.5-5.3,0.4c-1.2-0.1-2-0.1-1.2-0.2l-2.6,0.2c-0.8,0-0.6-0.1,0.2-0.1l-4,0.1c-0.6,0.1-1.8,0.3-2.5,0.3
		c-1-0.1,0.5-0.1,0.2-0.2l-2.2,0.2c-0.9-0.2,0.9-0.4,2.4-0.3c-2-0.7-1.8,0.2-6.2-0.2l2.1-0.1c-1.3-0.4-3-0.2-5.3-0.5
		c0.5,0.1,4.7,0.6,2.3,0.8c-0.9-0.1-1.9,0-2.8,0.1c0-0.1-0.3-0.2-0.8-0.2h-0.6h-0.4l0.3-0.3h-0.1c0-0.1-0.1-0.1-0.2-0.2l-0.1-0.1
		v-0.1v-0.1v-0.2c-0.1-0.9,0.1-1.9,0.5-2.7c0-3-0.4,2.1-0.5-1.5c0.1-2.4,0-4.9-0.2-7.3c0.1-1.8,0.2,0.3,0.3-0.3l-0.3-1.5
		c0-0.4,0.1-0.3,0.1-0.2c-0.1-1.3-0.3-0.1-0.4-2.2c0-0.1-0.1-0.2-0.1-0.3c0-0.1,0-0.2,0-0.3c0-0.3,0.1-0.6,0.1-0.8l0.7,0.1
		c0.3,0,0.6,0.1,0.8,0.1c0.8,0,1.6,0,2.3-0.1c0.6,0.1-0.3,0.2-0.1,0.3c3.5-0.3,3-0.2,5.9-0.5l2.5,0.2c-1.8-0.2,0.5-0.5,2.5-0.8
		c-0.6-0.1-1.2-0.2-1.5-0.3l3.2-0.2c0.4,0.1,0.1,0.2-0.5,0.3l0.6-0.1c1.1,0.1,0.5,0.3-0.3,0.5l-1.2-0.2c-0.8,0.2-1.5,0.4-1.4,0.6
		c0.4,0,0.7-0.1,1.1-0.1c-0.2,0-0.3,0.1-0.2,0.1c0.3,0,0.7,0,1-0.1l0.7,0.4l0.2-0.1l4.2,0.2c3.5-0.5,6.9-0.9,10.4-1
		c-1.2,0.3-0.2,0.4-0.3,0.7c-1.3-0.3-3.7,0.1-6.2,0.1c1.3,0,1,0.2,0.7,0.2l4.4-0.3c-0.1,0.2,0.9,0.2,2.1,0.3
		c-0.9-0.5,3.3-0.3,5.1-0.5c0.1,0.2-0.3,0.3-2.5,0.3c2.4,0.4,3.1-0.6,5.5-0.3c-0.3,0-0.7,0-1,0.1c1.2-0.1,4.3,0,3.6,0.1h-0.5
		c3.6,0.1,10.8,0,11.4-0.4c0,0.1-0.5,0.5-0.7,0.6l6.4-1.4c-0.6,0.4,1.6,1.2-1.4,1.4c1.2,0.1,2.5,0.1,3.7,0c-0.6-0.1-1.4-0.5-0.6-0.6
		c2.2,0.4,1.5,0.2,4.2,0.6c-0.9-0.1,0.1-0.6,1.5-0.6c-0.2,0.1,0.1,0.6-0.4,0.6l3.4-0.6c-0.9,0.1-0.1,0.5,0.6,0.6
		c-0.4-0.1,2.9,0,3.9-0.1l-1.4-0.1c3.9,0.1,3.8-0.8,7.6-0.8c-0.5,0.1-1.1,0.7,0.8,0.8c2.4-0.8,4.8-1.4,7.3-1.6l0.6,0.2l2.6-0.2
		c-1.6,0.4-6.1,1.3-8.6,1.7c0.8,0.2,1.7,0.2,2.6,0.2c0.8,0.1-1.2,0.2-1.8,0.2l5,0.1c-0.2-0.3,3.8-0.3,3.6-0.6l-5.5,0.4
		c-0.2-0.3,3.2-0.9,6.7-0.9c0.9,0.1-0.7,0.6-0.6,0.7c1.2-0.1,2.5-0.2,3.7-0.1l-1.5,0.2c2,0.1,3.2-0.4,5.6-0.1c0.8,0,2.5,0.4,2.6,0.2
		c-1.3-0.4-1.6-1.6-0.7-1.9c0.3,0,4.3,0.4,5.2,0.6c1.4,0.3-2,0.7-0.9,1c0.4-0.1,0.7-0.2,1.1-0.2c0.9,0.1-0.4,0.3,1.5,0.2
		c0.3-0.3,3.8,0,0.9-0.3c1.8-0.1,2,0.1,4.1,0.1c-0.7-0.2,1.9-0.8,3.8-0.9c-0.1,0.1,0.3,0.2,0.5,0.2c3.8,0,5.8,0.2,9.3,0.2
		c0.3,0.1,2,0.2,1.3,0.3c0.7-0.1,1.4-0.2,2-0.2c2.1,0.3-2.4,0-0.8,0.4c1.4-0.2,2.9-0.4,4.3-0.4c-0.5-0.3-3.6-0.1-5.1,0.1
		c0-0.4,2.7-0.9,6.3-1c2.9-0.1,1.3,0.3,1.8,0.2c5.5,0.1,4.7-0.7,9.2-0.4c1.8,0.3,0.1,0.5,0.5,0.7c-2.4,0.1-3.6-0.2-5.2-0.2l2,0.1
		c-1.1,0.1-2.1,0.1-3.2,0.1c1.5,0.2,9.2,0.1,13.5,0.3c0.8-0.1,2-0.2,1.4-0.3h-1.3c-1.2-0.2,2.5-0.3,0.8-0.4c2.1-0.3,4.2-0.3,6.3-0.3
		l0.5,0.3c-0.8-0.1-1.6-0.2-2.4-0.1c1-0.1,3.9,0.4,5,0l-1.8-0.2c2.1-0.3,4.2-0.4,6.2-0.4c-1-0.3-0.5,0-2.1-0.3
		c1.4,0.4-5.7,0-3.5,0.4c-1.6-0.4-2.8-0.2-5-0.5c0.1,0.1,0.8,0.2-1.1,0.1c-0.1,0-0.3,0.1-0.4,0.1s-0.1,0,0,0c0.3,0,0.6,0.1,1,0.2
		c-0.9,0.2-3.9,0.2-4.9,0.3c-1.1,0,0.5-0.1-0.1-0.2l-1.5,0.2c-0.1-0.2-3-0.4-0.3-0.5h-2.4c-1.5-0.1-3-0.2-4.5-0.1
		c-1.1-0.1-2.8,0.2-1.8,0.1l-3.7,0.1v-0.1c-3.6,0-7.5,0.4-11.7,0c-1.2,0.1-2.5,0.1-4.6,0.1l-0.4-0.2c-1.6,0.1-4.7-0.2-5.4,0
		c-1.7-0.5-7.7-0.1-10.4-0.2l-0.1,0.3c-1.9,0-3.7,0-6.1,0.2l0.1,0.2c-2,0.2-5.3-0.2-8.5-0.1c0.5-0.1,1.1-0.1,1.6,0
		c-3.9-0.5-8.2,0.4-11.7,0c-0.7,0.1-1.4,0.1-2.1,0h-0.1l-1.2-0.1l1,0.1c-0.7,0-1.7,0-2.7,0.1l-0.4-0.2h-0.2c-1-0.1-0.8,0.1-0.3,0.3
		c-0.5,0-1,0.1-1.3,0.1c-0.8-0.4-2.6,0.1-3.7-0.3c-0.7,0.2-5,0.1-5.6,0.6c0,0-0.3-0.1,0.2-0.1c-1.1-0.1-2.2-0.1-3.2,0l-0.5-0.3
		l-2.4,0.4c-1.5-0.2-2.1-0.3-0.6-0.5c-3.5,0.4-2.9,0.1-5.9,0.5l0.1-0.2c-1.1,0.1-2.3,0.2-3.5,0.1c-2.4-0.4-12-0.1-18.1-0.4
		c1.2,0.6-2.9-0.3-3.1,0.2c-0.4-0.1-1.2-0.2-0.2-0.3c-3.2,0.1-4.8-0.2-6.9,0.2c-0.4-0.1,0.7-0.2,0.4-0.3c-0.4,0.1-0.9,0.1-1.3,0
		c-0.3-0.1,0.5-0.1,1-0.2c-3.2,0-3.6,0.4-3.8,0.8c-1.2-0.2-2.4-0.2-3.6,0.1c-0.6-0.1-1.5-0.3,0.5-0.3c-1.1,0-6.9-0.2-7,0.1
		c-0.6-0.1-1.3-0.1-1.9,0h-2.6h-3.2l1,0.1c-0.4,0.1-0.8,0.2-1.3,0.2c0,0.5,0,0.9,0,1.5v0.9c0,0.3,0,0.6,0,0.9v-0.1
		c-0.3,4.6,0.1,2-0.2,6.5l0.2-0.2c0.5,0.4-0.3,4-0.1,6.7l0.1-0.9c0,0.8-0.1,1.7-0.2,2.5l-0.1,0.7l-0.1,1c-0.1,0.7-0.2,1.4-0.2,2.1
		h0.5c0.3,0-0.1,0.1-0.6,0.1v-1v1.1c2.3,0.1,2.4,0,2.4-0.1c0-0.1,0-0.1,0.3-0.2c0.3-0.1,0.3,0,0.6-0.1c0.3-0.1,0.4,0,0.8,0
		c0.5,0.2-0.7,0.4,1.2,0.5c1,0.1,5.5-0.6,8.1-0.2c-0.6-0.1-1.1-0.3,0.2-0.4c2-0.1,5.4,0.5,7.2,0.1c0.3,0,0.4,0.1,0.4,0.1
		c1.5-0.1,5-0.2,5.9-0.4c1.4,0.8,9.5-0.4,9.5,0.4h4.7l-0.1,0.1c1.7,0.1,3.4,0,5.1-0.3c0.7,0,0.2,0.1,0.1,0.2
		c2.8,0.2,5.7,0.1,8.5-0.3l0.4,0.2c1-0.1,6.4,0.4,10.7,0.1c-0.1,0.1-0.3,0.1-0.5,0.1c4.9-0.3,11.6,0.7,13.4-0.2l3.2-0.2
		c-4.1-0.1,0.6-0.4-1.1-0.5c1.6-0.1,4.2,0.3,2.2,0.3l-0.3-0.1c-0.7,0.5,5.2,0.2,5,0.5c8.2,0,16.1,0.2,23.8,0.3l-0.9-0.4h2.7
		c0.7,0.1,0.9,0.3-1,0.3c1.1,0.1,2.2,0,3.2-0.3c3.7,0.1-1.5,0.4-0.3,0.4h1.6H380c1.2-0.2,2.4-0.3,3.7-0.3c1.4,0.1,0.7,0.2,1.3,0.2
		c0.3,0,0.6,0,0.9,0h3.4l-1.4-0.3c1.5-0.1,3.2,0,1.6-0.3c2.3,0.5,12.5,0.2,13.9,0.3c2.2-0.2,4.5-0.2,6.7-0.2c-0.6-0.1-1-0.4,1.2-0.3
		c-0.8,0.7,4,0.3,5.8,0.8c-1.6-0.3,6.3-0.1,3.8-0.5c1.8,0,0.1,0.2,1.5,0.4c4.4-0.3,9.6,0.2,15,0.1c0.1-0.1-0.8-0.2,0.3-0.4l2.9,0.4
		c1.1,0,1-0.5,2.9-0.2c-0.3-0.1-0.7-0.2,0-0.2c10.6,0.4,21.6-0.4,32.4,0.4c-1.5-0.2-0.5-0.2,0.6-0.2c-0.7,0,0-0.2-0.1-0.3l4.5,0.3
		c0.8-0.3,4.8,0,5.3-0.3l-1.4,0.1c1.9-0.4-2.7-0.8-2.4-1.3c-2.1,0.4-5.6-0.6-9.1,0c-0.8-0.1,0.7-0.1,0.2-0.3
		c-1.3,0.2-2.6,0.3-3.9,0.1l0.2-0.1c-5.5,0.1-7.9-0.1-14.2-0.3l0.5,0.2c-0.8,0-1.5-0.1-2.2-0.2c-1.5,0.4,3.8,0,2.4,0.4
		c-1.8-0.5-9.4,0-10.6-0.6c-2.1,0,0.6,0.3-1.5,0.3l-0.5-0.1l-0.5,0.2c-1.4,0-2-0.2-2.1-0.3c0.3,0,0.9,0,1.3-0.1
		c-1.8-0.2-4.9,0.1-5.5,0l2,0.1c-5.6,0.1-12.5-0.1-17.9,0.2l0.4,0.1c-4.1,0.2-3.3-0.1-7.9,0h0.2c-1.1,0.1-2.3,0.2-3.4,0.2
		c1.1-0.1-2.2-0.3-0.7-0.4c-1.7,0-3.5,0.2-5.2,0.6l-0.7-0.2c-1.1,0.2-2.2,0.3-3.4,0.3c1.9-0.2-1.5-0.3,0.6-0.5
		c-4.8-0.4-7.1,0.4-9.3-0.2c-2.2,0.5,4.1,0.3,2.9,0.4c1,0.2-1.8,0.4-3.3,0.3s-2.6-0.7-6.4-0.6c0.4,0,0.4,0,0.8,0
		c-1.4-0.1-2.8,0.2-4.6,0c-1,0.3-2.3,0-2.6,0.4l3.5-0.1c-2.4,0.3-4.8,0.4-7.2,0.3c0.6-0.1,1.3-0.2,1.9-0.2c-1-0.1-1.9,0.1-2.9,0
		c0.3-0.4,4.3-0.1,6.4-0.4c-1-0.2-4,0.3-3-0.1c-1.5,0.6-3.8-0.1-6.4,0.4l0.2-0.2c-0.4,0-1.3,0.1-2,0.1l1.4-0.3
		c-2.1,0.3-4.1-0.2-6.1-0.1c4.2,0,1,0.3,2.7,0.5c-5.2,0.3-3-0.6-8.8-0.5c0.8,0,3,0.1,1.7,0.3c-1.1,0-2.2-0.1-3.3-0.3
		c-3.9,0.1,0.6,0.2-1,0.4c-1.3-0.3-1.9,0.1-3.6,0.2v-0.2c-4.4-0.1-1.2,0.5-5.1,0.3l1.7-0.3l-2.1,0.1l0.4-0.3
		c-1.7,0.2-3.4,0.2-5.1,0.1c0.5,0.2-0.3,0.4-2.2,0.4c-1.3-0.1,0.7-0.2-2-0.2c0.8-0.2,1.7-0.3,2.5-0.1c0.1-0.1,0.6-0.1,0.7-0.2
		c-1.5-0.1-3.1-0.1-4.6,0c0.4,0,0.7,0,1.1,0l-4,0.3c-0.6-0.1-0.1-0.2,0.4-0.2c-0.8,0-1.4,0.1-2.6,0.2c0.3-0.2,0.2-0.4,1.9-0.5
		l-3.8,0.2c-0.3-0.1-2-0.2-1.5-0.3c-2.1-0.1-5.2,0.4-8,0.2c-0.3,0.1-0.7,0.1-1,0.1c-2.7-0.2-5.4-0.2-8.1,0l-1.8-0.4
		c-2.5,0.1,2.4,0.4-1.7,0.6c-2.9,0.1-1.1-0.3-2.1-0.4c-2.2,0.3-4.4,0.4-6.6,0.2C299,82.9,299.7,82.9,300.5,82.9z M270.3,83
		c0.7-0.1,1.5-0.1,2.2-0.1C271.8,83.2,271,83.2,270.3,83z M284,64.6c-0.6,0.1-1.3,0-1.9-0.1C282.8,64.5,283.4,64.6,284,64.6z
		 M412,62.9C410.6,62.9,411,62.9,412,62.9L412,62.9z M414.7,63.1C415,63.1,414.9,63,414.7,63.1c-0.4,0-0.9,0-1.4,0
		C413.7,63.1,414.2,63.1,414.7,63.1z M384.9,85.1l-0.5-0.1C385.6,85,385.2,85,384.9,85.1z"/>
    <path class="st1" d="M278.8,64.9c-0.1,0-0.2-0.1-0.2-0.1C278.3,64.9,278.3,64.9,278.8,64.9z"/>
    <path class="st1" d="M372.6,65.1c-0.4,0-0.7,0-1.1-0.1C371.5,65,371.8,65.1,372.6,65.1z"/>
    <path class="st1" d="M429,62.7l-1.7,0.1c0.5,0,1,0,1.6,0.1C428.8,62.7,428.5,62.7,429,62.7z"/>
    <path class="st1" d="M444.1,64.1c0.3,0,0.5,0,0.8,0l-0.1-0.1C443.7,64,443,64.1,444.1,64.1z"/>
    <path class="st1" d="M430.6,63.4c0.8,0.2,1.6,0.2,2.5,0.1h-0.2C433.2,63.3,431.9,63.4,430.6,63.4z"/>
    <path class="st1" d="M433.4,63.5h1.1C434.6,63.4,434,63.5,433.4,63.5z"/>
    <path class="st1" d="M418.1,62.9c0.6,0.1,0.4-0.3,0.7-0.2C419.4,62.5,414.9,63.1,418.1,62.9z"/>
    <path class="st1" d="M431.6,64.1l-0.4-0.2l-0.7,0.2H431.6z"/>
    <path class="st1" d="M422,63.9l2,0.1c0-0.1,0.2-0.1,0.5-0.1C423.7,63.9,422.8,63.9,422,63.9z"/>
    <path class="st1" d="M429,64.2l-0.6-0.1H427L429,64.2z"/>
    <path class="st1" d="M401.1,63.9L399,64c-0.2,0.1,0.4,0.1,1.1,0.1C400.6,64,401.4,64,401.1,63.9z"/>
    <path class="st1" d="M407.5,64.6c-0.3,0-0.6-0.1-0.9-0.2l-0.1,0.3L407.5,64.6z"/>
    <path class="st1" d="M401.3,64.7c-0.2,0.1-3.1,0.2-0.4,0.2C401.2,64.8,403.3,64.7,401.3,64.7z"/>
    <path class="st1" d="M369.4,64.2h0.5l-0.1-0.5L369.4,64.2z"/>
    <path class="st1" d="M341.2,65.5c2.5,0.1,0.6-0.3,2.9-0.2c0.6-0.1-1.9-0.1-1.3-0.2C341.3,65.2,340.5,65.1,341.2,65.5z"/>
    <path class="st1" d="M342.8,65.1l0.8-0.1L342.8,65.1z"/>
    <path class="st1" d="M483.6,85.3l1.6,0.2l-1-0.2H483.6z"/>
    <path class="st1" d="M486.7,85l0.4,0.3l1-0.3C487.6,85,487.2,85,486.7,85z"/>
    <path class="st1" d="M266.1,82.4c0,0.1,0,0.2,0.1,0.2h0.9l-0.6-0.1L266.1,82.4z"/>
    <path class="st1" d="M287.7,82.6h-0.4l0.7,0.3L287.7,82.6z"/>
    <path class="st1" d="M306.1,82.3c-0.8,0-1.6,0.1-2.4,0C305.4,82.2,306.3,82.6,306.1,82.3z"/>
</g>
  <g id="darkModeWhite">
	<path class="st3" d="M268.9,66.5h3.4c2.2,0,3.3,1.4,3.3,4v8.1c0,2.6-1.1,4-3.3,4h-3.4V66.5z M272.2,80.2c0.7,0,1.1-0.4,1.1-1.6
		v-8.3c0-1.1-0.4-1.6-1.1-1.6h-1.1v11.4h1.1V80.2z"/>
    <path class="st3" d="M277.4,66.5h6v2.3h-3.8V73h3v2.3h-3v4.9h3.8v2.3h-6V66.5z"/>
    <path class="st3" d="M284.9,66.5h2.3v13.7h3.6v2.3h-5.9V66.5L284.9,66.5z"/>
    <path class="st3" d="M292.2,66.5h2.2v16h-2.2V66.5z"/>
    <path class="st3" d="M298,68.8h-2.3v-2.3h6.9v2.3h-2.3v13.7h-2.2V68.8H298L298,68.8z"/>
    <path class="st3" d="M303.8,78.7v-8.4c0-2.6,1.2-4,3.4-4c2.2,0,3.4,1.5,3.4,4v8.4c0,2.6-1.2,4-3.4,4
		C305,82.7,303.8,81.3,303.8,78.7z M308.3,78.9v-8.7c0-1.1-0.5-1.6-1.1-1.6c-0.6,0-1.1,0.4-1.1,1.6v8.7c0,1.1,0.4,1.6,1.1,1.6
		C307.9,80.5,308.3,80,308.3,78.9z"/>
    <path class="st3" d="M311.9,78.7v-0.9h2.1v1.1c0,1.1,0.5,1.6,1.1,1.6s1.1-0.4,1.1-1.6c0-1.3-0.4-2.2-1.9-3.6
		c-1.9-1.9-2.5-3.1-2.5-5c0-2.5,1.1-4,3.3-4c2.2,0,3.2,1.5,3.2,4V71h-2.1v-0.8c0-1.1-0.4-1.6-1.1-1.6c-0.7,0-1.1,0.4-1.1,1.5
		c0,1.1,0.5,2,1.9,3.4c1.9,1.9,2.4,3.1,2.4,5.1c0,2.6-1.2,4.1-3.4,4.1C312.7,82.7,311.9,81.3,311.9,78.7z"/>
    <path class="st3" d="M323.6,66.5h2.2V73h2.4v-6.5h2.2v16h-2.2v-7.2h-2.4v7.2h-2.2V66.5z"/>
    <path class="st3" d="M334,66.5h3l2.3,16h-2.2l-0.4-3.2h-2.5l-0.4,3.1h-2.1L334,66.5z M336.5,77.2l-1-7.9l-1,7.9H336.5z"/>
    <path class="st3" d="M340.5,78.8v-8.6c0-2.5,1.1-3.9,3.3-3.9c2.2,0,3.3,1.5,3.3,3.9v1.7H345V70c0-1.1-0.4-1.5-1.1-1.5
		c-0.7,0-1.1,0.4-1.1,1.5v8.9c0,1.1,0.4,1.5,1.1,1.5c0.7,0,1.1-0.4,1.1-1.5v-2.4h2.1v2.3c0,2.5-1.1,3.9-3.3,3.9
		C341.6,82.7,340.5,81.3,340.5,78.8z"/>
    <path class="st3" d="M348.7,66.5h2.2v16h-2.2V66.5z"/>
    <path class="st3" d="M354.6,66.5h3l2.3,16h-2.2l-0.4-3.2h-2.5l-0.4,3.1h-2L354.6,66.5z M357,77.2l-1-7.9l-1,7.9H357z"/>
    <path class="st3" d="M364.7,66.5h2.2v13.7h3.6v2.3h-5.9L364.7,66.5z"/>
    <path class="st3" d="M373.7,66.5h3l2.3,16h-2.2l-0.4-3.2h-2.5l-0.4,3.1h-2.1L373.7,66.5z M376.1,77.2l-1-7.9l-1,7.9H376.1z"/>
    <path class="st3" d="M383.2,66.5h2.2l1.5,12.4l1.5-12.4h2l-2.1,16h-2.9L383.2,66.5z"/>
    <path class="st3" d="M391.8,66.5h2.2v16h-2.2V66.5z"/>
    <path class="st3" d="M396,66.5h3.4c2.2,0,3.3,1.4,3.3,4v8.1c0,2.6-1.1,4-3.3,4H396V66.5z M399.3,80.2c0.7,0,1.1-0.4,1.1-1.6v-8.3
		c0-1.1-0.4-1.6-1.1-1.6h-1.1v11.4h1.1V80.2z"/>
    <path class="st3" d="M406.1,66.5h3l2.3,16h-2.2l-0.4-3.2h-2.5l-0.4,3.1h-2L406.1,66.5z M408.6,77.2l-1-7.9l-1,7.9H408.6z"/>
    <path class="st3" d="M415.9,78.7v-0.9h2.1v1.1c0,1.1,0.5,1.6,1.1,1.6s1.1-0.4,1.1-1.6c0-1.3-0.4-2.2-1.9-3.6
		c-1.9-1.9-2.5-3.1-2.5-5c0-2.5,1.1-4,3.3-4c2.2,0,3.2,1.5,3.2,4V71h-2.1v-0.8c0-1.1-0.4-1.6-1.1-1.6c-0.7,0-1.1,0.4-1.1,1.5
		c0,1.1,0.5,2,1.9,3.4c1.9,1.9,2.4,3.1,2.4,5.1c0,2.6-1.2,4.1-3.4,4.1C416.7,82.7,415.9,81.3,415.9,78.7z"/>
    <path class="st3" d="M424.1,66.5h2.2v16h-2.2V66.5z"/>
    <path class="st3" d="M428.2,66.5h2.2v13.7h3.6v2.3h-5.9L428.2,66.5z"/>
    <path class="st3" d="M434.9,66.5h2.2l1.5,12.4l1.5-12.4h2l-2.1,16h-3L434.9,66.5z"/>
    <path class="st3" d="M443.4,66.5h6v2.3h-3.8V73h3v2.3h-3v4.9h3.8v2.3h-6V66.5z"/>
    <path class="st3" d="M450.6,78.7v-0.9h2.1v1.1c0,1.1,0.4,1.6,1.1,1.6c0.7,0,1.1-0.4,1.1-1.6c0-1.3-0.5-2.2-1.9-3.6
		c-1.9-1.9-2.5-3.1-2.5-5c0-2.5,1.1-4,3.3-4c2.2,0,3.2,1.5,3.2,4V71h-2.1v-0.8c0-1.1-0.4-1.6-1.1-1.6c-0.7,0-1.1,0.4-1.1,1.5
		c0,1.1,0.5,2,1.9,3.4c1.9,1.9,2.4,3.1,2.4,5.1c0,2.6-1.2,4.1-3.3,4.1C451.6,82.7,450.6,81.3,450.6,78.7z"/>
    <path class="st3" d="M460.5,68.8h-2.3v-2.3h6.9v2.3h-2.3v13.7h-2.3V68.8z"/>
    <path class="st3" d="M466.4,66.5h3.3c2.3,0,3.3,1.2,3.3,3.7v1c0,1.6-0.5,2.7-1.5,3.1c1.1,0.4,1.5,1.6,1.5,3.4v2.8
		c0,0.7,0,1.3,0.2,1.9h-2.3c-0.2-0.6-0.3-1.3-0.2-2v-2.9c0-1.5-0.4-2-1.4-2h-0.8v6.9h-2.2V66.5H466.4L466.4,66.5z M469.4,73.4
		c0.8,0,1.3-0.4,1.3-1.7v-1.2c0-1.1-0.3-1.6-1.1-1.6h-1v4.6L469.4,73.4z"/>
    <path class="st3" d="M474.9,66.5h6v2.3h-3.8V73h3v2.3h-3v4.9h3.8v2.3h-6V66.5z"/>
</g>
</svg>
