<?xml version="1.0" encoding="utf-8"?>
<!-- Generator: Adobe Illustrator 26.4.1, SVG Export Plug-In . SVG Version: 6.00 Build 0)  -->
<svg height="129" version="1.1" id="Layer_1" xmlns="http://www.w3.org/2000/svg" xmlns:xlink="http://www.w3.org/1999/xlink" x="0px" y="0px"
     viewBox="0 0 393 126" style="enable-background:new 0 0 393 126;" xml:space="preserve">
<style type="text/css">
	.st0{fill:#F47D4C;}
	.st1{fill:#231F20;}
	.st2{fill:none;stroke:#231F20;stroke-miterlimit:10;}
	.st3{fill:#FFFFFF;}
</style>
  <path class="st0" d="M191.5,94.2c-17.3,24.8-51.4,30.9-76.1,13.6c-5.3-3.7-9.9-8.3-13.6-13.6H92c17.3,30.2,55.8,40.6,86,23.3
	c9.7-5.6,17.7-13.6,23.3-23.3H191.5z M146.6,8.2c17.9,0,34.6,8.7,44.8,23.4h9.8c-17.4-30.2-55.9-40.5-86-23.2
	c-9.6,5.5-17.6,13.5-23.2,23.2h9.8C112,16.9,128.8,8.2,146.6,8.2z"/>
  <path class="st0" d="M9.5,42.2H0v9.5h9.5V42.2z"/>
  <g id="darkModeBlack">
	<path class="st1" d="M9.5,51.7H0v32h9.5V51.7z"/>
    <path class="st1" d="M55.6,54.8l5.6-2.9c-2.9-6.5-9.4-10.6-16.5-10.5C32.3,41.4,24,50.6,23.9,63c-0.1,12.4,8.2,21.4,20.7,21.4
		s17.1-10.7,17.1-10.7l-5.2-2.9c-2.4,3.8-6.6,6.2-11.1,6.1c-7.6,0-11.5-6.8-11.5-13.9s3.3-13.9,11.4-13.9
		C53,49.1,55.6,54.8,55.6,54.8z"/>
    <path class="st1" d="M104.1,54.8l5.6-2.9c-2.9-6.5-9.4-10.6-16.5-10.5c-12.4,0-20.7,9.2-20.8,21.6s8.2,21.4,20.7,21.4
		c12.5,0,17.1-10.7,17.1-10.7l-5.2-2.9c-2.4,3.8-6.5,6.1-11,6.1c-7.7,0-11.5-6.8-11.5-13.9s3.3-13.9,11.4-13.9
		C101.5,49.1,104.1,54.8,104.1,54.8z"/>
    <path class="st1" d="M216.1,54.8l5.6-2.9c-2.9-6.5-9.4-10.6-16.5-10.5c-12.4,0-20.7,9.2-20.8,21.6c-0.1,12.4,8.2,21.4,20.7,21.4
		s17.1-10.7,17.1-10.7l-5.2-2.9c-2.4,3.8-6.5,6.1-11,6.1c-7.6,0-11.5-6.8-11.5-13.9s3.3-13.9,11.5-13.9
		C213.6,49.1,216.1,54.8,216.1,54.8z"/>
    <path class="st1" d="M129.9,42.1h-10.2l12.8,41.6h6.7l8-24.6l8.1,24.5l6.6,0.1L175,42.1h-9.2l-7.1,24.5l-7.6-24.5h-6.6l-7.9,24.3
		L129.9,42.1z"/>
    <path class="st2" d="M244,28.5v65.3"/>
    <path class="st1" d="M266.8,44h-2.3v-2.3h6.9V44h-2.3v13.7h-2.2V44H266.8z"/>
    <path class="st1" d="M272.5,53.9v-8.4c0-2.6,1.2-4,3.4-4c2.2,0,3.4,1.5,3.4,4v8.4c0,2.6-1.2,4-3.4,4
		C273.7,57.9,272.5,56.5,272.5,53.9z M277,54.1v-8.7c0-1.1-0.5-1.6-1.1-1.6s-1.1,0.4-1.1,1.6v8.7c0,1.1,0.4,1.6,1.1,1.6
		C276.6,55.7,277,55.2,277,54.1z"/>
    <path class="st1" d="M280.9,53.9v-8.4c0-2.6,1.1-4,3.3-4c2.2,0,3.3,1.5,3.3,4v1.4h-2.1v-1.5c0-1.1-0.4-1.6-1.1-1.6
		c-0.7,0-1.1,0.4-1.1,1.6v8.7c0,1.1,0.4,1.6,1.1,1.6c0.7,0,1.1-0.4,1.1-1.6V51h-1.1v-2.3h3.2v5.2c0,2.6-1.1,4-3.3,4
		C282,57.9,280.9,56.5,280.9,53.9z"/>
    <path class="st1" d="M289.2,41.7h6V44h-3.8v4.2h3v2.3h-3v4.9h3.8v2.3h-6V41.7z"/>
    <path class="st1" d="M298.5,44h-2.3v-2.3h6.9V44h-2.3v13.7h-2.3V44z"/>
    <path class="st1" d="M304.4,41.7h2.2v6.5h2.4v-6.5h2.2v16H309v-7.2h-2.4v7.2h-2.2V41.7z"/>
    <path class="st1" d="M313.1,41.7h6V44h-3.8v4.2h3v2.3h-3v4.9h3.8v2.3h-6V41.7z"/>
    <path class="st1" d="M320.8,41.7h3.3c2.3,0,3.3,1.2,3.3,3.7v1c0,1.6-0.5,2.7-1.5,3.1c1.1,0.4,1.5,1.6,1.5,3.4v2.8
		c0,0.7,0,1.3,0.2,1.9h-2.3c-0.2-0.6-0.3-1.3-0.2-2v-2.9c0-1.5-0.4-2-1.4-2h-0.8v6.9h-2.2L320.8,41.7L320.8,41.7z M323.8,48.6
		c0.8,0,1.3-0.4,1.3-1.7v-1.2c0-1.1-0.3-1.6-1.1-1.6h-1v4.5H323.8z"/>
    <path class="st1" d="M337.9,41.7h3l2.3,16H341l-0.4-3.2h-2.5l-0.4,3.1h-2L337.9,41.7z M340.3,52.4l-1-7.9l-1,7.9H340.3z"/>
    <path class="st1" d="M344.4,53.9v-8.4c0-2.6,1.1-4,3.3-4c2.2,0,3.3,1.5,3.3,4v1.4h-2.1v-1.5c0-1.1-0.4-1.6-1.1-1.6
		c-0.7,0-1.1,0.4-1.1,1.6v8.7c0,1.1,0.5,1.6,1.1,1.6c0.6,0,1.1-0.4,1.1-1.6V51h-1.1v-2.3h3.2v5.2c0,2.6-1.1,4-3.3,4
		C345.5,57.9,344.4,56.5,344.4,53.9z"/>
    <path class="st1" d="M354.4,41.7h3l2.3,16h-2.2l-0.4-3.2h-2.5l-0.4,3.1h-2.1L354.4,41.7z M356.8,52.4l-1-7.9l-1,7.9H356.8z"/>
    <path class="st1" d="M361.1,41.7h2.2v16h-2.2V41.7z"/>
    <path class="st1" d="M365.2,41.7h2.8l2.2,9.6v-9.6h2v16h-2.3L367.2,46v11.7h-2V41.7z"/>
    <path class="st1" d="M373.7,53.9V53h2.1v1.1c0,1.1,0.4,1.6,1.1,1.6c0.7,0,1.1-0.4,1.1-1.6c0-1.3-0.4-2.2-1.9-3.6
		c-1.9-1.9-2.5-3.1-2.5-5c0-2.5,1.1-4,3.3-4c2.2,0,3.2,1.5,3.2,4v0.7H378v-0.8c0-1.1-0.4-1.6-1.1-1.6c-0.7,0-1.1,0.4-1.1,1.5
		c0,1.1,0.5,2,1.9,3.4c1.9,1.9,2.4,3.1,2.4,5.1c0,2.6-1.2,4.1-3.3,4.1C374.7,57.9,373.7,56.5,373.7,53.9z"/>
    <path class="st1" d="M383.6,44h-2.3v-2.3h6.8V44h-2.3v13.7h-2.2V44z"/>
    <path class="st1" d="M390.7,62.8L264,65l0.3,20L391,82.8L390.7,62.8z"/>
    <path class="st1" d="M392.3,82.4c0,0.4,0.2,0.3,0.2,0.3C392.4,82,392.2,82.4,392.3,82.4z"/>
    <path class="st1" d="M391.6,75.3l0.1,0.1l-0.2-1L391.6,75.3z"/>
    <path class="st1" d="M391.5,68.6c-0.3,0.6,0.1,2.4,0,3.6l-0.1,0.2l0.3,0.5C391.7,71.5,391.5,69.6,391.5,68.6z"/>
    <path class="st1" d="M392.2,65c-0.1,0.2-0.1-0.8,0,0.8v-0.1V65z"/>
    <path class="st1" d="M392.3,65.7C392.3,66.4,392.4,65.2,392.3,65.7L392.3,65.7z"/>
    <path class="st1" d="M391.6,61.3l0.5-0.1l0.1,1.1c0-0.2,0.1-0.9,0.1-1.2c-0.2,0-0.4,0-0.1-0.1C390.4,61.1,390.7,61.2,391.6,61.3z"
    />
    <path class="st1" d="M390,61.6l0.8-0.1C390.5,61.5,390.2,61.5,390,61.6z"/>
    <path class="st1" d="M392,62v-0.5l-1.2,0.1c0.2,0.1,0.1,0.2,0.8-0.1c-0.2,0.1,0,0.1,0.4,0C392,61.6,392,61.8,392,62z"/>
    <path class="st1" d="M392,63c-0.1,0.9-0.1,1.9-0.2,0.5c0,1.5,0.1,1.6,0.2,1.6c0-0.1,0.1-0.3,0.1-0.4C392,64.3,392,63.7,392,63z"/>
    <path class="st1" d="M391.1,68.3L391,69l0.1,0.6C391.1,69.3,391.3,68.2,391.1,68.3z"/>
    <path class="st1" d="M384.6,61.3c-0.1,0.1,0.3,0.2,0.4,0.3l0.7-0.1C385.3,61.4,384.6,61.4,384.6,61.3z"/>
    <path class="st1" d="M385,61.6l-1,0.1C384.9,61.7,385,61.6,385,61.6z"/>
    <path class="st1" d="M389.6,62l2.1-0.2v0.4v-0.4l-2.6,0.2H389.6z"/>
    <path class="st1" d="M380.7,61.3l0.6-0.2l-1.1,0.3L380.7,61.3z"/>
    <path class="st1" d="M378.1,61.4c0.4-0.1-0.6-0.2-0.1-0.3c-0.6,0-1.2,0.1-1.8,0.3C376.7,61.3,377.4,61.3,378.1,61.4z"/>
    <path class="st1" d="M375.2,61.6c0.3,0,0.6-0.1,0.9-0.2C375.8,61.4,375.5,61.5,375.2,61.6z"/>
    <path class="st1" d="M382.2,61.7c-0.2-0.1-0.5-0.2-0.8-0.2l0.4,0.2H382.2z"/>
    <path class="st1" d="M386.6,61.9c-0.6,0.1-1.9,0.3-0.6,0.4C386.4,62.2,385.7,62.1,386.6,61.9z"/>
    <path class="st1" d="M382.8,61.9h1.1c0-0.1-0.2-0.1,0.1-0.2L382.8,61.9z"/>
    <path class="st1" d="M382.3,62l0.5-0.1h-0.4L382.3,62z"/>
    <path class="st1" d="M377.1,61.7c-0.5,0.1-1,0.1-1.6,0.1c0.6,0,1.3,0,1.9,0C377.5,61.8,377.7,61.7,377.1,61.7z"/>
    <path class="st1" d="M379.4,61.7h-0.1C379.3,61.8,379.4,61.8,379.4,61.7z"/>
    <path class="st1" d="M369.8,61.9l0.1,0.1v-0.1H369.8z"/>
    <path class="st1" d="M377.5,61.9c0.3,0,0.7,0,1-0.1c-0.4,0-0.7,0-1.1,0.1C377.3,61.9,377.3,61.9,377.5,61.9z"/>
    <path class="st1" d="M373.6,61.7l0.8,0.1C374.1,61.7,373.9,61.6,373.6,61.7z"/>
    <path class="st1" d="M379.1,61.7C379,61.6,379,61.7,379.1,61.7L379.1,61.7z"/>
    <path class="st1" d="M379.1,61.7c-0.2,0-0.4,0.1-0.6,0.1l0.8-0.1H379.1z"/>
    <path class="st1" d="M368.1,63.4c0.7-0.3,1.6-0.4,2.4-0.2c1-0.2,0.4-0.8-0.6-1.2c0,0.1,0,0.2-1.1,0.3c0.4,0.1,2.4,0.2,1.5,0.4
		c-0.6,0.1-1.3,0.1-1.9-0.1c0.6,0.2-1.8,0.4-1.5,0.8l1.2-0.1C368.1,63.2,367.7,63.3,368.1,63.4z"/>
    <path class="st1" d="M371.9,62h0.4c-0.5,0-1-0.1-1.5-0.2c-0.7,0.1-0.9,0.2-0.9,0.2h2.2H371.9z"/>
    <path class="st1" d="M374.3,61.9c-0.3,0.2-1.4,0.3-0.8,0.6c1.3,0,0.9-0.2,1.7-0.3C373.2,62.2,375.9,62,374.3,61.9
		c0.4,0,0.8,0,1.1-0.1l-1.1-0.1h0.1c0.1,0,0.1,0,0,0C374.5,61.8,374.4,61.8,374.3,61.9c-0.6,0-0.1-0.1,0.1-0.1l-2.1,0.1
		C372.8,62,373.4,61.9,374.3,61.9z"/>
    <path class="st1" d="M384,62.7c0.2-0.1,0.5-0.1,0.8-0.1c0.4,0.1,0,0.1,0,0.2c0.3-0.1,1-0.2,0.1-0.3h-0.1c-0.6,0-1.2-0.1-1.8-0.3
		C383.3,62.4,383.6,62.6,384,62.7z"/>
    <path class="st1" d="M379.1,62.3l-1.7,0.1l0.9,0.2v-0.1C379.2,62.6,379,62.4,379.1,62.3z"/>
    <path class="st1" d="M369.6,61.8l0.2-0.2l-1,0.3L369.6,61.8z"/>
    <path class="st1" d="M367.3,61.9l0.1-0.2l-0.6,0.1L367.3,61.9z"/>
    <path class="st1" d="M269.3,83.7l0.5-0.1L269.3,83.7z"/>
    <path class="st1" d="M311.5,62.9c-0.8-0.2-1.6-0.4-1.5-0.2l0.2,0.2C310.6,62.9,311.1,62.9,311.5,62.9z"/>
    <path class="st1" d="M273.3,64.9l0.2,0.1l0.5-0.2L273.3,64.9z"/>
    <path class="st1" d="M272.8,65.8l-1-0.1C272.1,65.7,272.4,65.7,272.8,65.8z"/>
    <path class="st1" d="M289.6,83.1l0.6-0.2C289.3,82.9,289.7,83,289.6,83.1z"/>
    <path class="st1" d="M344,62.4c-0.5-0.1-1.1-0.1-1.6-0.1C343.2,62.4,343.8,62.6,344,62.4z"/>
    <path class="st1" d="M267.9,86.1c0.3-0.1,0.5-0.1,0.4-0.1C268,85.9,267.8,86,267.9,86.1z"/>
    <path class="st1" d="M340.5,62.3h0.3c0.5-0.1,1-0.1,1.5-0.1C341.8,62.1,341.1,62.2,340.5,62.3z"/>
    <path class="st1" d="M384.8,83.8c-0.2,0-0.6,0-0.9,0C384.2,83.9,384.5,83.9,384.8,83.8z"/>
    <path class="st1" d="M360.5,62.8c-0.1,0-0.2,0.1-0.2,0.1C360.4,62.8,360.4,62.8,360.5,62.8z"/>
    <path class="st1" d="M358.9,62.1c-0.2,0-0.4,0-0.6-0.1C358.5,62,358.7,62.1,358.9,62.1z"/>
    <path class="st1" d="M358.8,62h0.4C359.3,61.9,359.2,61.9,358.8,62z"/>
    <path class="st1" d="M323.8,83.3h0.1C324.4,83.2,324.2,83.2,323.8,83.3z"/>
    <path class="st1" d="M297.2,65.6c0.5-0.2,1.1-0.3,1.7-0.2l-0.6-0.6L297.2,65.6z"/>
    <path class="st1" d="M278.2,83.6l-1.2-0.2c1.5-0.4,2.5-0.2,1.4-0.5c-0.2,0.7-4.7,0.1-4.9,0.8l-0.8-0.1c0.2,0,0.3,0,0.5,0
		c-1.6-0.3-1.1,0.5-3.2,0.4c-0.7,0-1.2-0.1-0.7-0.2l-1.6,0.2c-0.5,0-0.4-0.1,0.1-0.1c-0.8,0-1.8,0.1-1.9,0.1
		c-0.2,0.1-0.5,0.2-0.8,0.3l-0.1-0.1c0.1-0.4,0.1,0.1,0.2-0.1c0.1-0.2-0.1-0.4-0.2-0.6s0.2-0.1,0.2,0c0.1,0.2,0.1,0.4,0.1,0.5
		c0.7-1.2-0.2,0.3,0.2-2.7l0.1,1.2c0.4-0.8,0.2-1.8,0.4-3.2c-0.1,0.3-0.6,2.8-0.8,1.4c0.1-0.6,0-1.1-0.1-1.7c0.2,0,0.2-0.8,0.1-1.7
		l0.3,0.1c-0.1-0.5-0.2-1-0.4-1.5c-0.1-0.6,0.1-1.2,0.5-1.6c0-1.8-0.4,1.3-0.5-0.9c0.1-1.5,0-2.9-0.3-4.4c0.1-1.1,0.2,0.2,0.3-0.2
		l-0.3-0.9c0-0.2,0.1-0.2,0.1-0.1c0-0.4-0.1-0.4-0.2-0.5c-0.1-0.1-0.1-0.1-0.1-0.2c-0.1-0.1-0.1-0.3-0.1-0.4c-0.2-0.1-0.1-0.5,0-0.8
		c0.3,0.1,0.6,0.1,0.9,0.2h0.5c0.2,0,0.5,0,0.7-0.1c0.4,0.1-0.2,0.2-0.1,0.3c1.2-0.1,2.4-0.3,3.5-0.6l1.5,0.2
		c-1.1-0.2,0.3-0.5,1.5-0.8c-0.4-0.1-0.7-0.2-0.9-0.2l1.9-0.2c0.2,0,0,0.2-0.3,0.3l0.4-0.1c0.7,0.1,0.3,0.3-0.2,0.5l-0.4-0.4
		c-0.5,0.2-0.9,0.4-0.8,0.6c0.2-0.1,0.4-0.1,0.6-0.1c-0.1,0.1-0.2,0.1-0.1,0.1c0.2,0,0.4-0.1,0.6-0.1l0.4,0.4l0.1-0.1l2.5,0.2
		c2-0.6,4.1-1,6.2-1.1c-0.7,0.3-0.1,0.4-0.2,0.7c-0.8-0.3-2.2,0.2-3.7,0.1c0.8,0,0.6,0.2,0.4,0.2l2.6-0.3c0,0.2,0.6,0.2,1.3,0.3
		c-0.5-0.5,2-0.4,3.1-0.5c0.1,0.2-0.2,0.3-1.5,0.3c1.5,0.4,1.9-0.6,3.3-0.3c-0.3,0-0.5,0-0.6,0.1c0.8-0.2,2.6-0.1,2.2,0.1h-0.3
		c2.1,0,6.5-0.1,6.8-0.5c-0.1,0.2-0.2,0.4-0.4,0.6l3.8-1.5c-0.3,0.4,1,1.2-0.8,1.4c0.7,0.1,1.5,0.1,2.2-0.1c-0.4,0-0.9-0.5-0.4-0.6
		c0.8,0.2,1.7,0.4,2.5,0.5c-0.5-0.1,0-0.6,0.9-0.6c-0.1,0.1,0.1,0.6-0.2,0.6l2-0.6c-0.5,0.1-0.1,0.5,0.4,0.6c-0.2-0.1,1.8,0,2.3-0.1
		l-0.9-0.1c2.3,0,2.3-0.8,4.6-0.9c-0.3,0.1-0.7,0.7,0.5,0.8c1.3-0.8,2.8-1.4,4.4-1.7l0.4,0.2l1.6-0.2c-1.7,0.7-3.4,1.3-5.1,1.8
		c0.5,0.2,1,0.2,1.5,0.1c0.5,0.1-0.7,0.2-1.1,0.3h3c-0.1-0.3,2.3-0.4,2.2-0.6l-3.3,0.4c-0.1-0.3,1.9-1,4-1c0.5,0.1-0.4,0.6-0.4,0.7
		c0.7-0.2,1.5-0.2,2.2-0.2l-0.9,0.2c1.2,0.1,1.9-0.5,3.4-0.2c0.5,0,1.5,0.4,1.6,0.2c-0.8-0.4-1-1.6-0.5-1.9c0.2,0,2.6,0.3,3.2,0.5
		c0.8,0.3-1.2,0.7-0.5,1c0-0.1,0.5-0.2,0.7-0.2c0.5,0.1-0.2,0.3,0.9,0.2c0.2-0.3,2.3,0,0.5-0.3c1.1-0.1,1.2,0,2.5,0
		c-0.4-0.2,1.1-0.8,2.2-0.9c-0.1,0.1,0.2,0.2,0.3,0.2c2.3,0,3.5,0.1,5.6,0.1c0.2,0.1,1.2,0.2,0.8,0.3c0.4-0.1,0.8-0.2,1.2-0.2
		c1.3,0.3-1.5,0.1-0.5,0.4c0.8-0.3,1.7-0.4,2.6-0.4c-0.3-0.3-2.1,0-3.1,0.1c0-0.4,1.6-0.9,3.8-1.1c1.8-0.1,0.8,0.3,1.1,0.2
		c3.3,0,2.8-0.8,5.5-0.5c1.1,0.2,0,0.5,0.3,0.7c-1.1,0-2.1,0-3.2-0.1l1.2,0.1c-0.6,0.1-1.3,0.2-1.9,0.1c0.9,0.2,5.5-0.1,8.1,0.1
		c0.5-0.1,1.2-0.2,0.9-0.3l-0.8,0.1c-0.7-0.2,1.5-0.3,0.5-0.4c1.2-0.3,2.5-0.4,3.8-0.3l0.3,0.3c-0.5-0.1-0.9-0.1-1.4-0.1
		c0.6-0.1,2.3,0.4,3,0l-1.1-0.2c1.2-0.3,2.5-0.4,3.8-0.4c-0.6-0.3-0.3,0-1.3-0.3c0.8,0.4-3.4,0-2.1,0.5c-1-0.4-1.7-0.1-3-0.5
		c0,0.1,0.5,0.2-0.7,0.1c-0.1,0-0.2,0.1-0.2,0.1c0.2,0,0.4,0.1,0.6,0.1c-1,0.2-2,0.3-3,0.4c-0.7,0,0.3-0.1-0.1-0.2l-0.9,0.2
		c-0.1-0.2-1.8-0.4-0.2-0.5h-1.4c-0.9-0.1-1.8-0.1-2.7,0c-0.7,0-1.7,0.3-1.1,0.1l-2.2,0.2v-0.1c-2.2,0-4.5,0.4-7,0.1
		c-0.9,0.1-1.8,0.1-2.7,0.1l-0.2-0.2c-1.1-0.1-2.2,0-3.2,0.1c-1-0.5-4.6,0-6.3-0.1v0.2c-1.1,0-2.2,0.1-3.7,0.2l0.1,0.2
		c-1.2,0.2-3.2-0.1-5.1,0c0.3-0.1,0.7-0.1,1,0c-2.3-0.5-4.9,0.5-7,0.1c-0.4,0.1-0.9,0.1-1.3,0h-0.1l-0.7-0.1
		c0.2,0.1,0.4,0.1,0.6,0.1c-0.4,0-1,0-1.6,0.1l-0.3-0.2h-0.1c-0.6-0.1-0.5,0.1-0.1,0.3c-0.3,0-0.5,0.1-0.8,0.2
		c-0.5-0.4-1.6,0.2-2.2-0.2c-0.4,0.2-3,0.2-3.3,0.6c0,0-0.2-0.1,0.1-0.1c-0.7-0.1-1.3,0-2,0.1l-0.3-0.3l-1.5,0.4
		c-0.9-0.2-1.3-0.3-0.4-0.5c-2.1,0.4-1.7,0.2-3.5,0.6l0.1-0.2c-0.7,0.1-1.4,0.2-2.1,0.1c-1.5-0.4-7.2,0.1-10.9-0.2
		c0.7,0.6-1.7-0.2-1.9,0.2c-0.2-0.1-0.7-0.2-0.1-0.3c-1.9,0.2-2.9-0.2-4.2,0.2c-0.2-0.1,0.4-0.2,0.2-0.3c-0.3,0.1-0.5,0.1-0.8,0.1
		c-0.2-0.1,0.3-0.1,0.6-0.2c-1.9,0.1-2.1,0.5-2.3,0.9c-0.7-0.2-1.5-0.1-2.2,0.1c-0.4-0.1-0.9-0.2,0.3-0.3c-0.7,0-4.1-0.1-4.2,0.2
		c-0.4-0.1-0.8-0.1-1.1,0h-1.6l-2.1,0.1h0.6c-0.2,0.1-0.4,0.2-0.7,0.2c0,0.5-0.1,1.2,0,2.1c-0.2,2.9,0.2,1.2-0.1,4l0.2-0.1
		c0.5,0.2-0.3,2.4,0,4l0.1-0.6c0.2,0.9-0.6,2.4-0.7,3.3c0,0.2-0.1-0.3-0.1-0.6c-0.3,2.3,0.3,0.3,0.4,2c-0.2,0.3-0.4-0.4-0.5,0.8
		c0,0.7,0.1,1.4,0.2,2.1c0.1,0.5,0.1,1,0.1,1.5v0.5v0.5c0,0.4,0,0.7-0.1,1c0.1-0.6,0.2-1.1,0.4-0.1c0,0.3,0,0.6,0,0.9l2.8,0.1
		c0.6,0.1,1.2,0,1.7-0.2c0.1,0,0.2,0.1,0.2,0.1c1.2-0.1,2.4-0.2,3.5-0.5c0.9,0.8,5.7-0.5,5.7,0.3l2.8-0.1l-0.1,0.1
		c1,0.1,2.1-0.1,3.1-0.4c0.4,0,0.1,0.1,0.1,0.2c1.7,0.2,3.5,0,5.1-0.4l0.2,0.2c0.6-0.2,3.8,0.3,6.4,0c0,0-0.1,0.1-0.3,0.1
		c2.9-0.3,7,0.6,8.1-0.4l1.9-0.2c-2.5,0,0.4-0.4-0.7-0.5c1-0.1,2.5,0.2,1.3,0.3h-0.1c-0.4,0.5,3.1,0.1,3,0.4c4.9-0.1,9.7,0.1,14.3,0
		l-0.5-0.4h1.6c0.4,0.1,0.6,0.3-0.6,0.3c0.7,0.1,1.3,0,2-0.3c2.2,0.1-0.9,0.4-0.2,0.4h0.9h-0.2c0.7-0.2,1.4-0.3,2.2-0.3
		c0.9,0.1,0.5,0.2,0.8,0.2c0,0,0.1,0,0.5,0h2l-0.8-0.3c0.9-0.2,1.9,0,1-0.3c1.4,0.5,7.5,0,8.4,0.2c1.3-0.2,2.7-0.3,4-0.2
		c-0.4-0.1-0.6-0.4,0.7-0.4c-0.5,0.7,2.4,0.2,3.5,0.7c-1-0.3,3.8-0.1,2.2-0.6c1.1,0,0.1,0.2,0.9,0.4c2.6-0.3,5.8,0.1,9-0.1
		c0-0.1-0.5-0.2,0.2-0.4l1.7,0.4c0.6-0.1,0.6-0.5,1.8-0.2c-0.2-0.1-0.4-0.2,0-0.2c6.4,0.3,13-0.6,19.5,0.1c-0.9-0.2-0.3-0.2,0.4-0.2
		c-0.4,0,0-0.2-0.1-0.3l2.7,0.3c0.5-0.3,2.9-0.1,3.2-0.4l-0.9,0.1c1.1-0.4-1.6-0.8-1.5-1.3c-1.3,0.4-3.4-0.6-5.5,0.1
		c-0.5-0.1,0.4-0.2,0.1-0.3c-0.8,0.2-1.6,0.3-2.4,0.2h0.1c-3.3,0.1-4.8-0.1-8.5-0.1l0.3,0.2c-0.5,0-0.9,0-1.4-0.1
		c-0.9,0.4,2.3,0,1.4,0.4c-1.1-0.5-5.7,0.1-6.4-0.4c-1.2,0,0.4,0.3-0.9,0.3l-0.3-0.1l-0.3,0.2c-0.8,0-1.2-0.2-1.3-0.3
		c0.3,0,0.5,0,0.8-0.1c-1.1,0-2.2,0-3.3,0.1l1.2,0.1c-3.4,0.2-7.5,0.1-10.8,0.4l0.2,0.1c-2.5,0.2-2-0.1-4.7,0.1h0.1
		c-0.7,0.1-1.3,0.2-2,0.2c0.7-0.1-1.3-0.2-0.4-0.4c-1.1,0-2.1,0.2-3.1,0.6l-0.4-0.2c-0.6,0.2-1.3,0.4-2,0.3c1.1-0.2-0.9-0.3,0.4-0.5
		c-2.9-0.4-4.2,0.5-5.6-0.1c-1.3,0.5,2.5,0.2,1.8,0.4c0.6,0.2-1.1,0.4-2,0.4c-0.9,0-1.6-0.6-3.9-0.6c0.2,0,0.2,0,0.5,0
		c-0.9-0.1-1.7,0.2-2.8,0c-0.6,0.3-1.4,0-1.5,0.4l2.1-0.1c-1.4,0.3-2.9,0.5-4.3,0.4c0.4-0.1,0.8-0.2,1.1-0.3c-0.6-0.1-1.1,0.1-1.7,0
		c0.2-0.4,2.6-0.1,3.9-0.5c-0.6-0.1-2.4,0.3-1.8-0.1c-0.9,0.6-2.3,0-3.8,0.4l0.1-0.2c-0.4,0.1-0.8,0.1-1.2,0.2l0.8-0.3
		c-1.3,0.3-2.5-0.2-3.7,0c2.5,0,0.6,0.3,1.6,0.4c-3.1,0.4-1.8-0.6-5.3-0.4c0.5,0,1.8,0.1,1,0.2c-0.7,0-1.3-0.1-2-0.2
		c-2.3,0.1,0.4,0.2-0.6,0.4c-0.8-0.3-1.1,0.1-2.2,0.2v-0.2c-2.6-0.1-0.7,0.5-3.1,0.4l1-0.4l-1.2,0.1l0.2-0.3c-1,0.2-2.1,0.2-3.1,0.1
		c0.3,0.2-0.2,0.4-1.3,0.5c-0.8-0.1,0.5-0.2-1.2-0.2c0.5-0.2,1-0.3,1.5-0.1c0.1-0.1,0.4-0.2,0.4-0.2c-0.9-0.1-1.8-0.1-2.8,0
		c0.2,0,0.4,0,0.6,0l-2.4,0.4c-0.4-0.1-0.1-0.2,0.2-0.2c-0.5,0-0.8,0.1-1.5,0.2c0.2-0.2,0.1-0.4,1.1-0.5l-2.3,0.3
		c-0.1-0.1-1.2-0.2-0.9-0.3c-1.3-0.1-3.1,0.4-4.8,0.3c-0.2,0.1-0.4,0.1-0.6,0.1c-1.6-0.1-3.3-0.1-4.9,0.1l-1.1-0.3
		c-1.5,0.1,1.5,0.4-1,0.6c-1.7,0.1-0.6-0.3-1.3-0.4c-1.3,0.4-2.6,0.5-4,0.3C277.3,83.5,277.7,83.6,278.2,83.6z M265.4,80.7
		c0.1,0.4,0.2,0.9,0.1,1.3C265.2,81.6,265.3,81.3,265.4,80.7z M276,65.3c-0.4,0.1-0.8,0.1-1.1,0C275.2,65.3,275.6,65.3,276,65.3z
		 M352.9,62.3C352,62.2,352.3,62.2,352.9,62.3L352.9,62.3z M354.5,62.4c0.2,0,0.1-0.1,0.1-0.1c-0.3,0.1-0.6,0.1-0.9,0.1
		C354,62.4,354.2,62.4,354.5,62.4z M329,84.9l-0.3-0.1C329.4,84.7,329.2,84.8,329,84.9z"/>
    <path class="st1" d="M272.8,65.7c-0.1,0-0.1-0.1-0.2-0.1S272.5,65.6,272.8,65.7z"/>
    <path class="st1" d="M329.3,64.8c-0.2,0-0.4-0.1-0.6-0.1C328.6,64.8,328.8,64.8,329.3,64.8z"/>
    <path class="st1" d="M363.1,61.8l-1,0.1c0.3,0,0.6,0,0.9,0.1C363,61.9,362.8,61.8,363.1,61.8z"/>
    <path class="st1" d="M372.2,63.1c0.2,0,0.3,0,0.5,0V63C372,63,371.6,63.1,372.2,63.1z"/>
    <path class="st1" d="M364.1,62.6c0.1,0.2,0.7,0.1,1.5,0.1h-0.1C365.7,62.4,364.9,62.4,364.1,62.6z"/>
    <path class="st1" d="M365.7,62.6h0.7C366.5,62.5,366.1,62.6,365.7,62.6z"/>
    <path class="st1" d="M356.6,62.2c0.4,0,0.2-0.3,0.4-0.2C357.4,61.7,354.7,62.3,356.6,62.2z"/>
    <path class="st1" d="M364.7,63.2l-0.2-0.2l-0.5,0.2H364.7z"/>
    <path class="st1" d="M358.9,63.1h1.2c0,0,0.1-0.1,0.3-0.1C359.9,63,359.4,63.1,358.9,63.1z"/>
    <path class="st1" d="M360.4,63.1c0.3,0,0.6,0,0.9,0C361.1,63,360.7,63.1,360.4,63.1z"/>
    <path class="st1" d="M346.4,63.3l-1.3,0.1c-0.1,0.1,0.2,0.1,0.7,0.1C346.1,63.4,346.6,63.4,346.4,63.3z"/>
    <path class="st1" d="M350.2,63.9c-0.2,0-0.4-0.1-0.6-0.2V64L350.2,63.9z"/>
    <path class="st1" d="M346.5,64.1c-0.1,0.1-1.9,0.3-0.2,0.2C346.4,64.2,347.7,64.1,346.5,64.1z"/>
    <path class="st1" d="M327.3,64h0.3v-0.5L327.3,64z"/>
    <path class="st1" d="M310.4,65.6c1.5,0.1,0.4-0.3,1.7-0.2c0.4-0.1-1.1-0.1-0.8-0.2C310.4,65.3,309.9,65.2,310.4,65.6z"/>
    <path class="st1" d="M311.3,65.1l0.5-0.1C311.6,65,311.5,65.1,311.3,65.1z"/>
    <path class="st1" d="M388.4,84.1h1l-0.7-0.1L388.4,84.1z"/>
    <path class="st1" d="M390.2,83.7l0.2,0.3l0.6-0.3C390.8,83.7,390.5,83.7,390.2,83.7z"/>
    <path class="st1" d="M266,77.9c-0.2,0.2-0.2,0.5-0.2,0.8L266,77.9z"/>
    <path class="st1" d="M270.5,83.4h-0.2l0.4,0.3L270.5,83.4z"/>
    <path class="st1" d="M281.6,82.8c-0.5,0-1,0.1-1.4,0.1C281.1,82.8,281.7,83.2,281.6,82.8z"/>
</g>
  <g id="darkModeWhite">
	<path class="st3" d="M272.2,67.3h2.2l1.2,12.3l0.9-12.4h2.5l1.3,12.3l0.8-12.4h2l-1.2,16.1h-2.8l-1.2-10.8l-0.8,10.8h-3L272.2,67.3
		z"/>
    <path class="st3" d="M285.1,67.1h2.3l0.3,16.1h-2.3L285.1,67.1z"/>
    <path class="st3" d="M289.9,67h2.3l0.2,13.8l3.8-0.1V83l-6,0.1L289.9,67z"/>
    <path class="st3" d="M297.9,66.9l3.5-0.1c2.3,0,3.4,1.3,3.5,3.9l0.1,8.1c0,2.6-1,4-3.3,4l-3.5,0.1L297.9,66.9z M301.6,80.6
		c0.7,0,1.1-0.4,1.1-1.6l-0.1-8.4c0-1.1-0.5-1.6-1.2-1.5h-1.2l0.2,11.5H301.6z"/>
    <path class="st3" d="M307.1,66.8h2.3l0.2,13.8l3.8-0.1v2.3l-6,0.1L307.1,66.8z"/>
    <path class="st3" d="M315.1,66.6h2.3l0.3,16.1h-2.3L315.1,66.6z"/>
    <path class="st3" d="M319.9,66.6l6-0.1v2.3l-3.8,0.1l0.1,4.5l2.9-0.1v2.3l-2.9,0.1l0.1,7h-2.2L319.9,66.6z"/>
    <path class="st3" d="M327.8,66.4l6.2-0.1v2.3l-3.9,0.1l0.1,4.2l3.1-0.1v2.3l-3.1,0.1l0.1,4.9l3.9-0.1v2.3l-6.2,0.1L327.8,66.4z"/>
    <path class="st3" d="M340.4,78.6l-0.2-8.6c0-2.5,1.1-4,3.3-4s3.4,1.4,3.4,3.9v1.7h-2.2v-1.9c0-1.1-0.5-1.5-1.2-1.5
		s-1.1,0.5-1.1,1.5l0.2,9c0,1,0.5,1.5,1.2,1.4c0.7-0.1,1.1-0.4,1.1-1.5v-2.5h2.1v2.3c0,2.5-1.1,4-3.3,4
		C341.5,82.4,340.4,81,340.4,78.6z"/>
    <path class="st3" d="M349,66h3.4c2.4,0,3.4,1.1,3.4,3.6v1c0,1.6-0.4,2.7-1.4,3.2c1.1,0.4,1.5,1.6,1.6,3.4V80c0,0.7,0.1,1.3,0.3,1.9
		H354c-0.2-0.6-0.3-1.3-0.2-2V77c0-1.5-0.4-2-1.5-2h-0.8l0.1,6.9h-2.3L349,66z M352.3,72.9c0.9,0,1.4-0.4,1.3-1.7V70
		c0-1.1-0.4-1.6-1.2-1.6h-1l0.1,4.6L352.3,72.9z"/>
    <path class="st3" d="M358.2,65.9h2.3l0.3,16.1h-2.3L358.2,65.9z"/>
    <path class="st3" d="M363,65.8l3.2-0.1l1.7,11.5l1.2-11.5l3.2-0.1l0.3,16h-2.1l-0.2-12.1l-1.4,12.2H367l-1.9-12.1l0.2,12.1h-2
		L363,65.8z"/>
    <path class="st3" d="M375,65.6l6.2-0.1v2.3l-3.9,0.1l0.1,4.2l3.1-0.1v2.3l-3.1,0.1l0.1,4.9l3.9-0.1v2.3l-6.2,0.1L375,65.6z"/>
</g>
</svg>
