<?xml version="1.0" encoding="utf-8"?>
<!-- Generator: Adobe Illustrator 26.4.1, SVG Export Plug-In . SVG Version: 6.00 Build 0)  -->
<svg version="1.1" id="Layer_1" xmlns="http://www.w3.org/2000/svg" xmlns:xlink="http://www.w3.org/1999/xlink" x="0px" y="0px"
     viewBox="0 0 539 127" style="enable-background:new 0 0 539 127;" xml:space="preserve">
<style type="text/css">
	.st0{fill:#F47D4C;}
	.st1{fill:#231F20;}
	.st2{fill:none;stroke:#231F20;stroke-miterlimit:10;}
	.st3{fill:#FFFFFF;}
</style>
  <path class="st0" d="M191.5,95c-17.3,24.8-51.4,30.9-76.1,13.6c-5.3-3.7-9.9-8.3-13.6-13.6h-9.7c17.3,30.2,55.8,40.6,86,23.3
	c9.7-5.6,17.7-13.6,23.3-23.3H191.5z M146.6,9c17.9,0,34.6,8.7,44.8,23.4h9.8c-17.4-30.2-55.9-40.5-86-23.2
	c-9.6,5.5-17.6,13.5-23.2,23.2h9.8C112,17.7,128.8,9,146.6,9z"/>
  <path class="st0" d="M9.5,43H0v9.5h9.5V43z"/>
  <g id="darkModeBlack">
	<path class="st1" d="M9.5,52.5H0v32h9.5V52.5z"/>
    <path class="st1" d="M55.6,55.6l5.6-2.9c-2.9-6.5-9.4-10.6-16.5-10.5c-12.4,0-20.7,9.2-20.8,21.6c-0.1,12.4,8.2,21.4,20.7,21.4
		s17.1-10.7,17.1-10.7l-5.2-2.9c-2.4,3.8-6.5,6.1-11,6.1c-7.7,0-11.5-6.8-11.5-13.9s3.3-13.9,11.5-13.9C53,50,55.6,55.6,55.6,55.6z"
    />
    <path class="st1" d="M104.1,55.6l5.6-2.9c-2.9-6.5-9.4-10.6-16.5-10.5c-12.4,0-20.7,9.2-20.8,21.6s8.2,21.4,20.7,21.4
		c12.5,0,17.1-10.7,17.1-10.7l-5.2-2.9c-2.4,3.8-6.5,6.1-11,6.1c-7.7,0-11.5-6.8-11.5-13.9s3.3-13.9,11.4-13.9
		C101.5,50,104.1,55.6,104.1,55.6z"/>
    <path class="st1" d="M216.2,55.6l5.6-2.9c-2.9-6.5-9.4-10.6-16.5-10.5c-12.4,0-20.7,9.2-20.8,21.6s8.2,21.4,20.7,21.4
		s17.1-10.7,17.1-10.7l-5.2-2.9c-2.4,3.8-6.5,6.1-11,6.1c-7.6,0-11.5-6.8-11.5-13.9s3.3-13.9,11.4-13.9
		C213.6,50,216.2,55.6,216.2,55.6z"/>
    <path class="st1" d="M129.9,42.9h-10.2l12.8,41.6h6.7l8-24.6l8.1,24.5l6.6,0.1L175,42.9h-9.2l-7.1,24.5l-7.6-24.5h-6.6l-7.9,24.3
		L129.9,42.9z"/>
    <path class="st2" d="M244,29.3v65.3"/>
    <path class="st1" d="M268,42.6h6v2.3h-3.8v4.2h3v2.3h-3v4.9h3.9v2.3h-6L268,42.6z"/>
    <path class="st1" d="M275.6,42.6h2.8l2.1,9.6v-9.6h2v16h-2.3l-2.7-11.7v11.7h-2L275.6,42.6z"/>
    <path class="st1" d="M284,54.7v-0.9h2.1v1.1c0,1.1,0.4,1.6,1.1,1.6c0.7,0,1.1-0.4,1.1-1.6s-0.4-2.2-1.9-3.6c-1.9-1.9-2.5-3.1-2.5-5
		c0-2.5,1.1-4,3.3-4c2.2,0,3.2,1.5,3.2,4V47h-1.9v-0.8c0-1.1-0.4-1.6-1.1-1.6c-0.7,0-1.1,0.4-1.1,1.5s0.5,2,1.9,3.4
		c1.9,1.9,2.4,3.1,2.4,5.1c0,2.6-1.2,4.1-3.4,4.1C285,58.7,284,57.3,284,54.7z"/>
    <path class="st1" d="M292.2,42.6h6v2.3h-3.7v4.2h3v2.3h-3v4.9h3.8v2.3h-6L292.2,42.6z"/>
    <path class="st1" d="M299.8,42.6h3.2l1.4,11.4l1.4-11.4h3.2v16h-2.1V46.5l-1.6,12.1h-1.8l-1.6-12.1v12.1h-2v-16H299.8z"/>
    <path class="st1" d="M311,42.6h3.4c2.3,0,3.3,1.2,3.3,3.7v0.6c0,1.6-0.4,2.7-1.4,3.1c1.2,0.5,1.6,1.6,1.6,3.3v1.4
		c0,2.5-1.1,3.8-3.4,3.8H311V42.6L311,42.6z M314,49c0.8,0,1.3-0.4,1.3-1.7v-0.9c0-1.1-0.3-1.6-1.1-1.6h-1.1V49H314z M314.5,56.2
		c0.7,0,1.1-0.4,1.1-1.6v-1.4c0-1.5-0.4-1.9-1.4-1.9h-1v4.9H314.5z"/>
    <path class="st1" d="M319.4,42.6h2.2v13.7h3.6v2.3h-5.9L319.4,42.6z"/>
    <path class="st1" d="M326.6,42.6h6v2.3h-3.8v4.2h3v2.3h-3v4.9h3.8v2.3h-6V42.6z"/>
    <path class="st1" d="M337.6,54.9v-8.6c0-2.5,1.1-3.9,3.3-3.9c2.2,0,3.3,1.5,3.3,3.9V48h-2.1v-1.8c0-1.1-0.5-1.5-1.1-1.5
		s-1.1,0.4-1.1,1.5v8.9c0,1.1,0.4,1.5,1.1,1.5s1.1-0.4,1.1-1.5v-2.4h2.1V55c0,2.5-1.1,3.9-3.3,3.9C338.7,58.9,337.6,57.3,337.6,54.9
		z"/>
    <path class="st1" d="M345.6,54.7v-8.4c0-2.6,1.2-4,3.4-4s3.4,1.5,3.4,4v8.4c0,2.6-1.2,4-3.4,4S345.6,57.3,345.6,54.7z M350.1,54.9
		v-8.7c0-1.1-0.4-1.6-1.1-1.6s-1.1,0.4-1.1,1.6v8.7c0,1.1,0.5,1.6,1.1,1.6S350,56,350.1,54.9z"/>
    <path class="st1" d="M354,42.6h2.8l2.1,9.6v-9.6h2v16h-2.3L356,46.9v11.7h-2V42.6z"/>
    <path class="st1" d="M364.7,44.9h-2.3v-2.3h6.9v2.3H367v13.7h-2.2L364.7,44.9L364.7,44.9z"/>
    <path class="st1" d="M370.6,42.6h3.3c2.3,0,3.3,1.2,3.3,3.7v1c0,1.6-0.5,2.7-1.5,3.1v0.1c1.1,0.4,1.5,1.6,1.5,3.4v2.8
		c0,0.7,0,1.3,0.2,1.9h-2.3c-0.2-0.6-0.3-1.3-0.2-2v-2.9c0-1.5-0.4-2-1.4-2h-0.8v6.9h-2.2L370.6,42.6z M373.6,49.4
		c0.8,0,1.3-0.4,1.3-1.7v-1.2c0-1.1-0.3-1.6-1.1-1.6h-1v4.6h0.8V49.4z"/>
    <path class="st1" d="M379,42.6h6v2.3h-3.8v4.2h3v2.3h-3v4.9h3.8v2.3h-6V42.6z"/>
    <path class="st1" d="M390.1,42.6h2.2v13.7h3.6v2.3H390L390.1,42.6z"/>
    <path class="st1" d="M399,42.6h3l2.3,16h-2.2l-0.4-3.2v0.1h-2.5l-0.4,3.1h-2.1L399,42.6z M401.5,53.2l-1-7.9l-1,7.9H401.5z"/>
    <path class="st1" d="M537.5,64.2H264.2v20h273.3V64.2z"/>
    <path class="st1" d="M538.7,83.6c0,0.9,0.2,0.5,0.2,0.7C538.9,82.8,538.6,83.6,538.7,83.6z"/>
    <path class="st1" d="M538.2,69.2l0.1,0.3l-0.2-2.1L538.2,69.2z"/>
    <path class="st1" d="M529.1,63.5c1.1,0.2,2.1,0.2,3.2,0.1l2.1-0.1h1h1.2l0.5,0.1l1.1-0.2l0.1,0.4v-0.5h-3.1l-2.3,0.1
		C531.5,63.5,530.1,63.5,529.1,63.5z"/>
    <path class="st1" d="M522,62.7c0.4,0.1-1.5,0.1,1.7,0h-0.3H522z"/>
    <path class="st1" d="M523.4,62.7C524.8,62.7,522.5,62.6,523.4,62.7L523.4,62.7z"/>
    <path class="st1" d="M516.9,62.8l1.9-0.1c-0.4-0.1-2-0.1-1.4-0.2C515.4,62.6,515.8,62.7,516.9,62.8z"/>
    <path class="st1" d="M515.1,63l1-0.1C515.8,62.9,515.5,63,515.1,63z"/>
    <path class="st1" d="M518.1,62.9l-2,0.1c0.3,0.1,0.3,0.2,0.9,0C516.9,63.1,517.3,63,518.1,62.9z"/>
    <path class="st1" d="M519.3,62.9c1,0.1,2.4,0.1,0.5,0.2C523.3,63.1,522.8,62.9,519.3,62.9z"/>
    <path class="st1" d="M528.5,63.9l1.4,0.1l1.2-0.1C530.5,63.9,528.4,63.7,528.5,63.9z"/>
    <path class="st1" d="M505.3,62.6c-0.1,0.1,0.6,0.2,0.8,0.3l1.4-0.1C506.7,62.8,506,62.7,505.3,62.6z"/>
    <path class="st1" d="M506.1,62.9l-2,0.1C505.9,63,506.2,63,506.1,62.9z"/>
    <path class="st1" d="M514.8,63.4l3.4-0.2l-4,0.2H514.8z"/>
    <path class="st1" d="M497.5,62.6l1.2-0.2l-2.1,0.3L497.5,62.6z"/>
    <path class="st1" d="M492.3,62.6c0.9-0.1-1.2-0.2-0.3-0.3c-1.4,0-2.6,0.1-3.7,0.3C489.7,62.5,491,62.5,492.3,62.6z"/>
    <path class="st1" d="M486.5,62.7c0.6,0,1.2-0.1,1.8-0.2C487.7,62.6,487.1,62.6,486.5,62.7z"/>
    <path class="st1" d="M500.5,63c-0.5-0.2-1.1-0.2-1.6-0.2l0.8,0.2H500.5z"/>
    <path class="st1" d="M509.4,63.2c-1.2,0.1-3.7,0.2-1.3,0.4C509,63.5,507.6,63.4,509.4,63.2z"/>
    <path class="st1" d="M501.8,63.3l2.2,0.1c0-0.1-0.4-0.1,0.2-0.2L501.8,63.3z"/>
    <path class="st1" d="M500.7,63.3l1.1-0.1H501L500.7,63.3z"/>
    <path class="st1" d="M490.3,62.9c-0.9,0.1-2,0.1-3.1,0.1c1.2,0,2.5,0.1,3.8,0.1C491,63,491.6,62.9,490.3,62.9z"/>
    <path class="st1" d="M491,63.1c0.7,0,1.3,0,2-0.1c-0.7,0-1.4,0-2.2,0C490.8,63.1,490.8,63.1,491,63.1z"/>
    <path class="st1" d="M483.3,62.9l1.6,0.1C484.4,62.9,483.9,62.8,483.3,62.9z"/>
    <path class="st1" d="M494.3,62.9c-0.5,0-0.9,0.1-1.2,0.1c0.6,0,1.1,0,1.6-0.1C494.6,63,494.5,62.9,494.3,62.9z"/>
    <path class="st1" d="M472.2,64.4c1.6-0.3,3.2-0.4,4.8-0.2c2.1-0.1,0.7-0.8-1.1-1.2c-0.1,0.1-0.1,0.2-2.2,0.3c0.8,0.1,4.8,0.2,3,0.4
		c-1.2,0.1-2.5,0-3.7-0.2c1.2,0.2-3.6,0.4-3,0.7l2.5-0.1C472.4,64.2,471.5,64.3,472.2,64.4z"/>
    <path class="st1" d="M480,63.1h0.9c-1,0-1.7-0.1-3.1-0.3c-0.6,0-1.3,0.1-1.9,0.2h4.4L480,63.1z"/>
    <path class="st1" d="M484.8,63.1c-0.7,0.2-2.8,0.3-1.5,0.5c1.1,0,2.3-0.1,3.4-0.3C482.5,63.4,487.9,63.2,484.8,63.1
		c0.9,0,1.6,0,2.3,0H484.8L485,63c0.2,0,0.2,0,0,0C485,63,484.9,63,484.8,63.1c-1.2-0.1-0.2-0.1,0.2-0.1l-4.2,0.1
		C481.7,63.1,482.8,63.1,484.8,63.1z"/>
    <path class="st1" d="M504.2,64c0.5-0.1,1-0.1,1.5-0.1c0.9,0.1,0,0.1,0,0.2c0.6-0.1,2.1-0.2,0.2-0.3h-0.3c-1.2,0-2.4-0.1-3.6-0.4
		C502.7,63.7,503.5,63.9,504.2,64z"/>
    <path class="st1" d="M494.4,63.6l-3.5,0.1l1.8,0.2l-0.1-0.1C494.6,63.9,494.1,63.7,494.4,63.6z"/>
    <path class="st1" d="M475.3,62.9l0.4-0.2l-2,0.3L475.3,62.9z"/>
    <path class="st1" d="M470.7,62.9l0.2-0.2l-1.2,0.2H470.7z"/>
    <path class="st1" d="M294,83.1l1-0.1L294,83.1z"/>
    <path class="st1" d="M286.6,83l-0.2,0.1C286.8,83.1,287,83,286.6,83z"/>
    <path class="st1" d="M359.1,63c-1.5-0.2-3.2-0.5-3-0.2l0.5,0.2C357.4,62.9,358.3,62.9,359.1,63z"/>
    <path class="st1" d="M282.7,64.3l0.4,0.1l1-0.2L282.7,64.3z"/>
    <path class="st1" d="M281.6,65.2l-2-0.1C280.1,65.1,280.7,65.1,281.6,65.2z"/>
    <path class="st1" d="M334.7,82.9l1.2-0.2C334,82.6,334.9,82.7,334.7,82.9z"/>
    <path class="st1" d="M424.2,63c-1.3-0.1-2.3-0.1-3.2-0.1C422,63.1,423.1,63.1,424.2,63z"/>
    <path class="st1" d="M291.1,85.4c0.6,0,0.9-0.1,0.9-0.1C291.4,85.2,291,85.3,291.1,85.4z"/>
    <path class="st1" d="M417.2,62.9l0.7,0.1c0.9,0,1.9-0.1,3-0.1C419.7,62.7,418.5,62.7,417.2,62.9z"/>
    <path class="st1" d="M457.1,63.7c-0.2,0-0.4,0-0.4,0.1C456.9,63.8,457,63.7,457.1,63.7z"/>
    <path class="st1" d="M407.6,64.2C407.8,64.3,407.8,64.3,407.6,64.2L407.6,64.2z"/>
    <path class="st1" d="M453.9,63l-1.2-0.1L453.9,63z"/>
    <path class="st1" d="M403.1,83.6h0.2C404.3,83.5,403.9,83.5,403.1,83.6z"/>
    <path class="st1" d="M330.6,65.4c1.1-0.2,2.3-0.3,3.4-0.2l-1.1-0.6L330.6,65.4z"/>
    <path class="st1" d="M311.9,83l-2.4-0.2c2.9-0.3,5.1-0.2,2.8-0.5c-0.3,0.7-9.5,0.1-9.8,0.8l-1.6-0.1c0.5,0,0.5,0,1,0
		c-3.1-0.3-2.3,0.5-6.3,0.4c-1.4,0-2.4-0.1-1.4-0.2l-3.1,0.2c-0.9,0-0.7-0.1,0.2-0.1h-4.8c-0.7,0.1-2.2,0.3-3,0.3
		c-1.2-0.1,0.6-0.1,0.3-0.1l-2.6,0.2c-1.1-0.2,1.1-0.4,2.9-0.3c-2.5-0.7-2.2,0.2-7.5-0.2l2.5-0.1c-1.6-0.4-3.5-0.2-6.4-0.5
		c0.7,0.1,5.6,0.6,2.8,0.8c-1.1-0.1-2.3-0.1-3.4,0.1c0-0.2-1.5-0.2-3.4-0.2l0.1-0.3c-0.6,0-1.2,0.1-1.9,0.2l-0.5,0.1h-0.3l-0.2,0.1
		c-0.2,0-0.4,0-0.6-0.1c0.1-0.5,0.3-0.6,0.4-0.7c0-0.1,0-0.3,0-0.4v-0.4c0-0.2,0-0.3,0-0.3c-0.1,0.2-0.1,0.4-0.1,0.6
		c-0.1,0.5-0.2,1-0.3-1.1c0.1-2.9,0-5.8-0.2-8.8c0.1-2.1,0.2,0.4,0.3-0.4l-0.2-1.9c0-0.5,0.1-0.3,0.1-0.2c-0.1-1.6-0.3-0.1-0.4-2.6
		c-0.1-0.1-0.1-0.2-0.1-0.4c0-0.1,0-0.4,0-0.5c0-0.3,0.1-0.7,0.1-1l0.9,0.1c0.1,0,0.3,0,0.5,0h0.7c0.9,0,1.9,0,2.8-0.1
		c0.8,0.1-0.4,0.2-0.1,0.3c4.2-0.3,3.6-0.2,7.1-0.5l3,0.2c-2.2-0.2,0.6-0.5,3-0.8c-0.8-0.1-1.4-0.2-1.9-0.3l3.9-0.2
		c0.5,0.1,0.1,0.2-0.6,0.3l0.7-0.1c1.4,0.1,0.7,0.3-0.3,0.5l-1.4-0.2c-1,0.2-1.9,0.4-1.6,0.6c0.2,0,0.7-0.1,1.3-0.1
		c-0.2,0-0.4,0.1-0.3,0.1c0.4,0,0.8,0,1.2-0.1l0.9,0.4l0.2-0.1l5.1,0.2c3.6-0.4,6.8-0.9,12.5-1c-1.4,0.3-0.3,0.4-0.4,0.7
		c-1.6-0.3-4.5,0.1-7.4,0.1c1.5,0,1.2,0.2,0.8,0.2l5.3-0.3c-0.1,0.2,1.1,0.2,2.5,0.3c-1-0.5,4-0.3,6.1-0.5c0.1,0.2-0.4,0.3-3,0.3
		c2.9,0.4,3.8-0.6,6.6-0.3c-0.4,0-0.8,0-1.2,0.1c1.5-0.1,5.2,0,4.3,0.1h-0.6c4.3,0.1,13,0,13.7-0.4c0,0.1-0.6,0.5-0.8,0.6l7.6-1.4
		c-0.7,0.4,1.9,1.2-1.6,1.4c1.5,0.1,3,0.1,4.4,0c-0.7-0.1-1.7-0.5-0.8-0.6c2.6,0.4,1.8,0.2,5,0.6c-1-0.1,0.1-0.7,1.8-0.6
		c-0.2,0.1,0.1,0.6-0.5,0.6l4.1-0.6c-1,0.1-0.2,0.5,0.7,0.6c-0.4-0.1,3.5,0,4.6,0l-1.7-0.1c4.6,0.1,4.6-0.8,9.2-0.8
		c-0.6,0.1-1.4,0.7,1,0.8c2.9-0.9,5.8-1.4,8.8-1.6l0.8,0.2l3.1-0.2c-1.9,0.4-7.4,1.4-10.4,1.7c1,0.2,2,0.2,3.1,0.2
		c0.9,0.1-1.4,0.2-2.2,0.2l6,0.1c-0.3-0.3,4.6-0.3,4.4-0.6l-6.6,0.4c-0.3-0.3,3.8-1,8.1-0.9c1.1,0.1-0.8,0.6-0.7,0.7
		c1.5-0.1,3-0.2,4.5-0.1l-1.8,0.2c2.4,0.1,3.9-0.4,6.8-0.1c1,0,3,0.4,3.1,0.2c-1.6-0.4-1.9-1.6-0.9-1.9c0.3,0,5.2,0.4,6.3,0.6
		c1.6,0.3-2.4,0.7-1.1,1c0.4-0.1,0.9-0.2,1.3-0.2c1,0.1-0.4,0.3,1.8,0.2c0.4-0.3,4.6,0,1.1-0.3c2.2-0.1,2.3,0.1,4.9,0.1
		c-0.8-0.2,2.3-0.8,4.5-0.9c-0.1,0.1,0.4,0.2,0.6,0.2c4.5,0,7,0.2,11.2,0.2c0.4,0.1,2.4,0.2,1.5,0.3c0.8-0.1,1.6-0.2,2.5-0.2
		c2.5,0.3-2.9,0-1,0.4c1.7-0.2,3.5-0.4,5.2-0.4c-0.6-0.3-4.3-0.1-6.1,0.1c0-0.4,3.2-0.9,7.6-1.1c3.5-0.1,1.5,0.3,2.1,0.2
		c6.6,0.1,5.6-0.7,11.1-0.4c2.2,0.3,0.1,0.5,0.6,0.7c-2.9,0.1-4.4-0.2-6.3-0.2l2.4,0.1c-1.3,0.1-2.6,0.1-3.9,0.1
		c1.8,0.2,11.1,0.1,16.2,0.3c0.9-0.1,2.5-0.2,1.7-0.3h-1.6c-1.5-0.2,3-0.3,1-0.4c2.5-0.2,5.1-0.3,7.6-0.3l0.6,0.3
		c-0.9-0.1-1.9-0.2-2.8-0.1c1.3-0.1,4.6,0.4,6,0l-2.1-0.2c2.5-0.3,5-0.4,7.5-0.4c-1.2-0.3-0.6,0-2.5-0.3c1.7,0.4-6.9,0-4.2,0.4
		c-2-0.4-3.4-0.2-6-0.5c0.1,0.1,0.9,0.2-1.4,0.1c-0.1,0-0.3,0.1-0.5,0.1c-0.1,0-0.1,0,0,0c0.4,0,0.8,0.1,1.1,0.1
		c-1.1,0.2-4.7,0.2-5.9,0.3c-1.3,0,0.6-0.1-0.2-0.2l-1.8,0.2c-0.2-0.2-3.5-0.4-0.4-0.5h-2.8c-1.8-0.1-3.6-0.2-5.4-0.1
		c-1.3-0.1-3.4,0.2-2.2,0.1l-4.5,0.1v-0.1c-4.4,0-9,0.4-14.1,0c-1.5,0.1-3,0.1-5.5,0.1l-0.5-0.2c-1.9,0.1-5.7-0.2-6.5,0
		c-2-0.5-9.2-0.1-12.6-0.2l-0.1,0.3c-2.3,0-4.5,0.1-7.4,0.2l0.2,0.2c-2.5,0.2-6.3-0.2-10.2-0.1c0.6-0.1,1.3-0.1,2,0
		c-4.6-0.5-9.8,0.4-14,0c-0.8,0.1-1.7,0.1-2.5,0h-0.2l-1.5-0.1c0.4,0,0.9,0.1,1.2,0.1c-0.8,0-2,0-3.2,0.1l-0.5-0.2h-0.3
		c-1.2-0.1-1,0.1-0.3,0.3c-0.6,0-1.2,0.1-1.6,0.1c-1-0.4-3.2,0.1-4.5-0.3c-0.8,0.2-6.1,0.1-6.7,0.6c0-0.1-0.4-0.1,0.3-0.1
		c-1.3-0.1-2.6-0.1-3.9,0l-0.6-0.3l-2.9,0.4c-1.8-0.2-2.5-0.3-0.8-0.5c-4.3,0.4-3.5,0.1-7.1,0.5l0.2-0.2c-1.4,0.1-2.8,0.1-4.2,0.1
		c-2.9-0.4-14.4-0.1-21.8-0.4c1.4,0.6-3.5-0.3-3.8,0.2c-0.4-0.1-1.5-0.2-0.3-0.3c-3.8,0.1-5.7-0.2-8.3,0.2c-0.4-0.1,0.8-0.2,0.4-0.3
		c-0.5,0.1-1.1,0.1-1.6,0c-0.4-0.1,0.6-0.1,1.2-0.2c-3.9,0-4.3,0.4-4.6,0.9c-1.5-0.2-2.9-0.2-4.4,0.1c-0.7-0.1-1.8-0.3,0.6-0.3
		c-1.4,0-8.3-0.2-8.4,0.1c-0.8-0.1-1.5-0.1-2.3,0h-3.2h-3.6l1.1,0.1c-0.5,0.1-1.1,0.2-1.6,0.2c0,0.6,0,1.1,0,1.8c0,0.3,0,0.7,0,1
		v1.1v-0.1c-0.3,5.5,0.1,2.4-0.2,7.9l0.2-0.3c0.3,0.3,0.2,1.5,0.1,3c-0.1,0.8-0.1,1.6-0.2,2.5c0,0.4,0,0.9,0,1.3v0.7v0.8l0.1-1.4
		c0,0.9,0,1.8-0.1,2.7l1.5,0.2c0.5,0.1,1.2,0.1,1.5,0.2c0.7,0.1,1.4,0.2,2.1,0.3c0.4,0-0.6,0.1-1.1,0.1c4.5,0.3,0.6-0.3,4-0.4
		c0.6,0.2-0.8,0.4,1.5,0.5c1.1,0.1,6.6-0.5,9.7-0.2c-0.7-0.1-1.4-0.3,0.2-0.4c2.4,0,6.5,0.5,8.7,0.1c0.3,0,0.4,0.1,0.4,0.1
		c1.9-0.1,6-0.2,7.1-0.4c1.7,0.8,11.5-0.4,11.4,0.4h5.7l-0.1,0.1c2.1,0.1,4.1,0,6.2-0.3c0.8,0,0.2,0.1,0.1,0.2
		c3.4,0.2,6.9,0.1,10.3-0.3l0.5,0.2c1.2-0.1,7.7,0.4,12.9,0.1c-0.2,0.1-0.4,0.1-0.6,0.1c5.9-0.3,14,0.7,16.1-0.2l3.9-0.2
		c-5-0.1,0.7-0.4-1.3-0.5c2,0,5.1,0.3,2.7,0.3h-0.4c-0.9,0.5,6.2,0.2,6.1,0.5c9.8,0,19.4,0.2,28.6,0.3l-1.1-0.4h3.2
		c0.9,0.1,1.1,0.3-1.2,0.3c1.3,0.1,2.6,0,3.9-0.3c4.5,0.1-1.8,0.4-0.4,0.4h1.9h-0.4c1.5-0.2,2.9-0.3,4.4-0.3
		c1.7,0.1,0.9,0.2,1.6,0.2c0.3,0.1,0.7,0.1,1,0h4l-1.6-0.3c1.8-0.1,3.8,0,1.9-0.3c2.7,0.5,15.1,0.2,16.8,0.3c2.5-0.2,5-0.2,8.1-0.2
		c-0.8-0.1-1.2-0.4,1.4-0.4c-1,0.7,4.9,0.3,7,0.8c-1.9-0.3,7.5-0.1,4.5-0.5c2.2,0.1,0.1,0.2,1.8,0.4c5.2-0.3,11.6,0.2,18.1,0.1
		c0.1-0.1-1-0.2,0.4-0.4l3.4,0.4c1.3,0,1.2-0.5,3.5-0.2c-0.3-0.1-0.8-0.2,0-0.2c12.7,0.4,26-0.4,39,0.5c-1.8-0.2-0.6-0.2,0.8-0.2
		c-0.9,0,0-0.2-0.2-0.3l5.4,0.3c1-0.3,5.8,0,6.4-0.3h-1.7c2.3-0.4-3.2-0.8-2.9-1.3c-2.5,0.4-6.7-0.6-10.9,0
		c-0.9-0.1,0.8-0.2,0.3-0.3c-1.6,0.2-3.1,0.3-4.7,0.2l0.3-0.1c-6.7,0-9.5-0.1-17-0.3l0.5,0.2c-1.6,0-2-0.1-2.7-0.2
		c-1.8,0.4,4.5,0,2.8,0.4c-2.1-0.5-11.4,0-12.8-0.6c-2.5,0,0.7,0.3-1.8,0.3l-0.7-0.1l-0.6,0.2c-0.8,0.1-1.7,0-2.5-0.3
		c0.4,0,1.1,0,1.5,0c-2.1-0.2-5.9,0.1-6.7,0l2.4,0.1c-6.8,0.1-15-0.1-21.6,0.2l0.5,0.1c-5,0.2-4-0.1-9.5,0h0.2
		c-1.3,0.1-2.7,0.2-4.1,0.2c1.4-0.1-2.6-0.3-0.8-0.4c-2.1,0-4.2,0.2-6.2,0.6l-0.8-0.2c-1.3,0.2-2.7,0.3-4.1,0.3
		c2.2-0.2-1.8-0.3,0.8-0.5c-5.8-0.4-8.5,0.4-11.2-0.2c-2.6,0.5,5,0.3,3.5,0.4c1.2,0.2-2.2,0.4-4,0.3c-1.8-0.1-3.1-0.7-7.7-0.6
		c0.5,0,0.5,0,1,0c-1.7-0.1-3.4,0.2-5.5,0c-1.2,0.3-2.8,0-3.1,0.4l4.2-0.1c-2.9,0.3-5.7,0.4-8.6,0.3c0.3-0.1,1.5-0.2,2.3-0.2
		c-1.2-0.1-2.2,0.1-3.4,0c0.3-0.4,5.1-0.1,7.7-0.4c-1.2-0.2-4.9,0.3-3.6-0.1c-1.9,0.5-4.5-0.1-7.7,0.4l0.2-0.2
		c-0.5,0-1.5,0.1-2.4,0.1l1.6-0.3c-2.5,0.3-4.9-0.2-7.3-0.1c5.1,0,1.1,0.3,3.3,0.5c-6.3,0.3-3.6-0.6-10.6-0.5c1,0,3.6,0.1,2.1,0.2
		c-1.3,0-3.1-0.1-3.9-0.3c-4.6,0,0.7,0.2-1.3,0.4c-1.6-0.3-2.3,0.1-4.3,0.2v-0.2c-5.3-0.1-1.4,0.5-6.2,0.3l2-0.3l-2.5,0.1l0.5-0.3
		c-2.1,0.2-4.1,0.2-6.2,0.1c0.6,0.2-0.4,0.4-2.7,0.4c-1.6-0.1,0.9-0.2-2.4-0.2c1-0.2,2-0.3,3-0.1c0.1-0.1,0.7-0.1,0.9-0.2
		c-1.7-0.2-4.3,0-5.5,0c0.5,0,1,0,1.3,0l-4.8,0.3c-0.8-0.1-0.2-0.2,0.4-0.2c-1,0-1.7,0.1-3.1,0.2c0.4-0.2,0.3-0.4,2.3-0.5l-4.6,0.2
		c-0.3-0.1-2.4-0.2-1.8-0.3c-2.5-0.1-6.2,0.4-9.6,0.2c-0.4,0.1-0.8,0.1-1.2,0.1c-3.2,0-6-0.3-9.8,0l-2.1-0.4c-3,0.1,2.9,0.5-2,0.6
		c-3.5,0.1-1.3-0.3-2.5-0.4c-2.6,0.3-5.3,0.4-7.9,0.2C310,83,310.9,83,311.9,83z M275.6,83.1c0.9-0.1,1.8-0.1,2.6-0.1
		C277.3,83.3,276.4,83.3,275.6,83.1z M288,64.7c-0.7,0.1-1.5,0-2.2-0.1C286.5,64.7,287.3,64.7,288,64.7z M441.9,63.1
		C440.2,63,440.8,63,441.9,63.1L441.9,63.1z M445.2,63.2c0.3,0,0.3-0.1,0.2-0.1c-0.6,0.1-1.2,0.1-1.8,0.1
		C444.1,63.2,444.6,63.2,445.2,63.2z M413.4,85.2l-0.6-0.1C414.2,85.1,413.8,85.1,413.4,85.2z"/>
    <path class="st1" d="M281.8,65.1c-0.1,0-0.2-0.1-0.3-0.1C281.2,65,281.2,65,281.8,65.1z"/>
    <path class="st1" d="M394.6,65.2c-0.4,0-0.9-0.1-1.3-0.1C393.3,65.1,393.6,65.2,394.6,65.2z"/>
    <path class="st1" d="M462.4,62.7l-2.1,0.1c0.6,0,1.3,0,1.9,0.1C462.2,62.9,461.8,62.7,462.4,62.7z"/>
    <path class="st1" d="M480.5,64.2c0.3,0,0.7,0,1,0l-0.1-0.1C480.1,64.1,479.2,64.2,480.5,64.2z"/>
    <path class="st1" d="M464.4,63.5c0.2,0.2,1.5,0.1,2.9,0.1H467C467.5,63.4,465.9,63.5,464.4,63.5z"/>
    <path class="st1" d="M467.6,63.6h1.4C469.2,63.5,468.4,63.6,467.6,63.6z"/>
    <path class="st1" d="M449.3,63c0.7,0.1,0.4-0.3,0.8-0.2C450.9,62.6,445.5,63.2,449.3,63z"/>
    <path class="st1" d="M465.5,64.2L465,64l-0.8,0.2H465.5z"/>
    <path class="st1" d="M454,64l2.3,0.1c0-0.1,0.3-0.1,0.6-0.1C456,64,455,64,454,64z"/>
    <path class="st1" d="M462.4,64.3l-0.8-0.1H460L462.4,64.3z"/>
    <path class="st1" d="M428.9,64l-2.6,0.1c-0.3,0.1,0.4,0.1,1.4,0.1C428.3,64.1,429.3,64.1,428.9,64z"/>
    <path class="st1" d="M436.6,64.7c-0.4,0-0.8-0.1-1.1-0.2l-0.1,0.3L436.6,64.7z"/>
    <path class="st1" d="M429.1,64.7c-0.2,0.1-3.7,0.2-0.5,0.2C428.9,64.9,431.5,64.9,429.1,64.7z"/>
    <path class="st1" d="M390.7,64.3h0.6l-0.1-0.5L390.7,64.3z"/>
    <path class="st1" d="M356.8,65.6c3,0.1,0.7-0.3,3.5-0.2c0.7-0.1-2.2-0.1-1.5-0.2C356.9,65.3,356,65.2,356.8,65.6z"/>
    <path class="st1" d="M358.7,65.2l0.9-0.1L358.7,65.2z"/>
    <path class="st1" d="M532.1,85.4l2,0.2l-1.3-0.2H532.1z"/>
    <path class="st1" d="M535.9,85.1l0.5,0.3l1.2-0.3C536.9,85.1,536.4,85.1,535.9,85.1z"/>
    <path class="st1" d="M270.2,82.5l-0.1,0.1c0.6,0.1,1.1,0.1,1.7,0.1L270.2,82.5z"/>
    <path class="st1" d="M296.5,82.7h-0.4l0.8,0.3L296.5,82.7z"/>
    <path class="st1" d="M318.7,82.4l-2.9,0.1C317.8,82.3,318.9,82.7,318.7,82.4z"/>
</g>
  <g id="darkModeWhite">
	<path class="st3" d="M268.7,78.9v-8.6c0-2.5,1.1-3.9,3.3-3.9s3.3,1.5,3.3,3.9V72h-2.1v-1.8c0-1.1-0.4-1.5-1.1-1.5
		c-0.7,0-1.1,0.4-1.1,1.5v8.9c0,1.1,0.4,1.5,1.1,1.5c0.7,0,1.1-0.4,1.1-1.5v-2.4h2.1v2.2c0,2.5-1.1,3.9-3.3,3.9
		S268.7,81.4,268.7,78.9z"/>
    <path class="st3" d="M276.8,66.6h3.3c2.3,0,3.3,1.2,3.3,3.7v1c0,1.6-0.5,2.7-1.5,3.1c1.1,0.4,1.5,1.6,1.5,3.4v2.8
		c0,0.7,0,1.3,0.2,1.9h-2.3c-0.2-0.6-0.3-1.3-0.2-2v-2.9c0-1.5-0.4-2-1.4-2h-0.8v6.9h-2.2L276.8,66.6z M279.8,73.5
		c0.8,0,1.3-0.4,1.3-1.7v-1.2c0-1.1-0.3-1.6-1.1-1.6h-1v4.6L279.8,73.5z"/>
    <path class="st3" d="M285.2,66.6h2.2v16h-2.2V66.6z"/>
    <path class="st3" d="M289.4,66.6h3.2L294,78l1.4-11.4h3.2v16h-2.1V70.5l-1.6,12.1H293l-1.6-12.1v12.1h-1.9L289.4,66.6z"/>
    <path class="st3" d="M300.5,66.6h2.2v16h-2.2V66.6z"/>
    <path class="st3" d="M304.6,66.6h2.8l2.1,9.6v-9.6h2v16h-2.3l-2.7-11.7v11.7h-2L304.6,66.6z"/>
    <path class="st3" d="M315.3,66.6h3l2.3,16h-2.2l-0.4-3.2h-2.5l-0.4,3.1H313L315.3,66.6z M317.7,77.3l-1-7.9l-1,7.9H317.7z"/>
    <path class="st3" d="M321.9,66.6h2.2v13.7h3.6v2.3h-5.9L321.9,66.6z"/>
    <path class="st3" d="M329.1,66.6h2.2v16h-2.2V66.6z"/>
    <path class="st3" d="M335,68.9h-2.3v-2.3h6.9v2.3h-2.3v13.7h-2.2V68.9H335L335,68.9z"/>
    <path class="st3" d="M340.9,66.6h6v2.2h-3.8V73h3v2.3h-3v4.9h3.8v2.3h-6V66.6z M344.1,62.9h2.4l-2.2,2.6h-1.7L344.1,62.9z"/>
    <path class="st3" d="M352,66.6h2.2v13.7h3.6v2.3h-5.9L352,66.6z"/>
    <path class="st3" d="M359.2,66.6h2.2v16h-2.2V66.6z"/>
    <path class="st3" d="M363.4,66.6h6v2.2h-3.8V73h3v2.3h-3v4.9h3.8v2.3h-6V66.6z M366.6,62.9h2.4l-2.2,2.6h-1.7L366.6,62.9z"/>
    <path class="st3" d="M371,66.6h6v2.2h-3.8V73h3v2.3h-3v4.9h3.9v2.3h-6L371,66.6z"/>
    <path class="st3" d="M383.8,66.6h3l2.3,16h-2.2l-0.4-3.2H384l-0.4,3.1h-2.1L383.8,66.6z M386.2,77.3l-1-7.9l-1,7.9H386.2z"/>
    <path class="st3" d="M390.4,78.9V66.7h2.2v12.4c0,1.1,0.4,1.6,1.1,1.6c0.7,0,1.1-0.4,1.1-1.6V66.7h2.1v12.2c0,2.6-1.1,4-3.3,4
		C391.4,82.9,390.4,81.4,390.4,78.9z"/>
    <path class="st3" d="M400.8,74.4l-2.4-7.8h2.3l1.5,5.2l1.5-5.2h2.1l-2.4,7.8l2.6,8.2h-2.3l-1.6-5.6l-1.6,5.6h-2.1L400.8,74.4z"/>
    <path class="st3" d="M410.8,66.6h6v2.2H413V73h3v2.3h-3v4.9h3.8v2.3h-6V66.6z"/>
    <path class="st3" d="M418,78.9v-1h2.1V79c0,1.1,0.4,1.6,1.1,1.6c0.7,0,1.1-0.4,1.1-1.6c0-1.2-0.5-2.2-1.9-3.6
		c-1.9-1.9-2.5-3.1-2.5-5c0-2.5,1.1-4,3.3-4c2.2,0,3.2,1.5,3.2,4v0.7h-1.9v-0.8c0-1.1-0.4-1.6-1.1-1.6c-0.7,0-1.1,0.4-1.1,1.5
		c0,1.1,0.5,2,1.9,3.4c1.9,1.9,2.4,3.1,2.4,5.1c0,2.6-1.2,4.1-3.3,4.1C419.2,82.8,418,81.4,418,78.9z"/>
    <path class="st3" d="M426.2,66.6h3.3c2.2,0,3.3,1.4,3.3,4v1.6c0,2.6-1.1,4-3.3,4h-1v6.5h-2.2L426.2,66.6z M429.5,73.8
		c0.7,0,1.1-0.4,1.1-1.5v-1.9c0-1.1-0.4-1.5-1.1-1.5h-1v5L429.5,73.8z"/>
    <path class="st3" d="M434.3,66.6h6v2.2h-3.8V73h3v2.3h-3v4.9h3.8v2.3h-6V66.6z M434.7,62.9h2.4l1.4,2.6h-1.7L434.7,62.9z"/>
    <path class="st3" d="M441.7,78.9v-8.6c0-2.5,1.1-3.9,3.3-3.9s3.3,1.5,3.3,3.9V72h-2.1v-1.8c0-1.1-0.5-1.5-1.1-1.5s-1.1,0.4-1.1,1.5
		v8.9c0,1.1,0.4,1.5,1.1,1.5c0.7,0,1.1-0.4,1.1-1.5v-2.4h2.1v2.2c0,2.5-1.1,3.9-3.3,3.9S441.7,81.4,441.7,78.9z"/>
    <path class="st3" d="M449.9,66.6h6v2.2h-3.8V73h3v2.3h-3v4.9h3.8v2.3h-6V66.6z"/>
    <path class="st3" d="M457,78.9v-1h2.1V79c0,1.1,0.4,1.6,1.1,1.6c0.7,0,1.1-0.4,1.1-1.6c0-1.2-0.5-2.2-1.9-3.6
		c-1.9-1.9-2.5-3.1-2.5-5c0-2.5,1.1-4,3.3-4c2.2,0,3.2,1.5,3.2,4v0.7h-1.9v-0.8c0-1.1-0.4-1.6-1.1-1.6c-0.7,0-1.1,0.4-1.1,1.5
		c0,1.1,0.5,2,1.9,3.4c1.9,1.9,2.4,3.1,2.4,5.1c0,2.6-1.2,4.1-3.3,4.1C458.2,82.8,457,81.4,457,78.9z"/>
    <path class="st3" d="M468.4,78.9v-1h2.1V79c0,1.1,0.4,1.6,1.1,1.6c0.7,0,1.1-0.4,1.1-1.6c0-1.2-0.5-2.2-1.9-3.6
		c-1.9-1.9-2.5-3.1-2.5-5c0-2.5,1.1-4,3.3-4c2.2,0,3.2,1.5,3.2,4v0.7h-2.1v-0.8c0-1.1-0.4-1.6-1.1-1.6c-0.7,0-1.1,0.4-1.1,1.5
		c0,1.1,0.5,2,1.9,3.4c1.9,1.9,2.4,3.1,2.4,5.1c0,2.6-1.2,4.1-3.3,4.1S468.4,81.4,468.4,78.9z"/>
    <path class="st3" d="M478.3,66.6h3l2.3,16h-2.2l-0.4-3.2h-2.5l-0.4,3.1H476L478.3,66.6z M480.7,77.3l-1-7.9l-1,7.9H480.7z"/>
    <path class="st3" d="M484.8,78.9V66.7h2.2v12.4c0,1.1,0.4,1.6,1.1,1.6c0.7,0,1.1-0.4,1.1-1.6V66.7h2.1v12.2c0,2.6-1.1,4-3.3,4
		S484.8,81.4,484.8,78.9z"/>
    <path class="st3" d="M492.7,66.6h2.2l1.5,12.4l1.5-12.4h2l-2.1,16h-3L492.7,66.6z"/>
    <path class="st3" d="M503,66.6h3l2.3,16H506l-0.4-3.2h-2.5l-0.4,3.1h-2.1L503,66.6z M505.5,77.3l-1-7.9l-1,7.9H505.5z"/>
    <path class="st3" d="M509.5,78.9v-8.4c0-2.6,1.1-4,3.3-4c2.2,0,3.3,1.5,3.3,4v1.4h-2v-1.5c0-1.1-0.5-1.6-1.2-1.6
		c-0.7,0-1.2,0.4-1.2,1.6v8.7c0,1.1,0.4,1.6,1.2,1.6c0.8,0,1.2-0.4,1.2-1.6v-3.2H513v-2.3h3.2v5.3c0,2.6-1.1,4-3.3,4
		C510.7,82.9,509.5,81.4,509.5,78.9z"/>
    <path class="st3" d="M517.8,66.6h6v2.2H520V73h3v2.3h-3v4.9h3.8v2.3h-6V66.6z"/>
    <path class="st3" d="M525,78.9v-1h2.1V79c0,1.1,0.5,1.6,1.2,1.6s1.2-0.4,1.2-1.6c0-1.2-0.4-2.2-1.9-3.6c-1.9-1.9-2.5-3.1-2.5-5
		c0-2.5,1.1-4,3.3-4c2.2,0,3.2,1.5,3.2,4v0.7h-2.1v-0.8c0-1.1-0.4-1.6-1.1-1.6c-0.7,0-1.1,0.4-1.1,1.5c0,1.1,0.5,2,1.9,3.4
		c1.8,1.9,2.4,3.1,2.4,5.1c0,2.6-1.2,4.1-3.3,4.1C526.2,82.8,525,81.4,525,78.9z"/>
</g>
</svg>
