<svg width="17" height="18" viewBox="0 0 17 18" fill="none" xmlns="http://www.w3.org/2000/svg">
<path d="M6.72917 2.625C7.95027 2.625 9.12136 3.11008 9.9848 3.97353C10.8483 4.83698 11.3333 6.00807 11.3333 7.22917C11.3333 8.36958 10.9154 9.41792 10.2283 10.2254L10.4196 10.4167H10.9792L14.5208 13.9583L13.4583 15.0208L9.91667 11.4792V10.9196L9.72542 10.7283C8.91792 11.4154 7.86958 11.8333 6.72917 11.8333C5.50807 11.8333 4.33698 11.3483 3.47353 10.4848C2.61008 9.62136 2.125 8.45027 2.125 7.22917C2.125 6.00807 2.61008 4.83698 3.47353 3.97353C4.33698 3.11008 5.50807 2.625 6.72917 2.625ZM6.72917 4.04167C4.95833 4.04167 3.54167 5.45833 3.54167 7.22917C3.54167 9 4.95833 10.4167 6.72917 10.4167C8.5 10.4167 9.91667 9 9.91667 7.22917C9.91667 5.45833 8.5 4.04167 6.72917 4.04167Z" fill="#231F20"/>
</svg>
