<svg width="35" height="37" viewBox="0 0 35 37" fill="none" xmlns="http://www.w3.org/2000/svg">
<path d="M13.8542 4.90625C16.3682 4.90625 18.7793 5.94061 20.5569 7.78179C22.3346 9.62297 23.3333 12.1201 23.3333 14.724C23.3333 17.1557 22.4729 19.3911 21.0583 21.113L21.4521 21.5208H22.6042L29.8958 29.0729L27.7083 31.3385L20.4167 23.7865V22.5932L20.0229 22.1854C18.3604 23.6505 16.2021 24.5417 13.8542 24.5417C11.3401 24.5417 8.92907 23.5073 7.15138 21.6661C5.37369 19.825 4.375 17.3278 4.375 14.724C4.375 12.1201 5.37369 9.62297 7.15138 7.78179C8.92907 5.94061 11.3401 4.90625 13.8542 4.90625ZM13.8542 7.92708C10.2083 7.92708 7.29167 10.9479 7.29167 14.724C7.29167 18.5 10.2083 21.5208 13.8542 21.5208C17.5 21.5208 20.4167 18.5 20.4167 14.724C20.4167 10.9479 17.5 7.92708 13.8542 7.92708Z" fill="#1E1E1E"/>
</svg>
