<svg width="34" height="34" viewBox="0 0 34 34" fill="none" xmlns="http://www.w3.org/2000/svg">
<path d="M9.91699 9.91667H24.0837C25.9623 9.91667 27.7639 10.6629 29.0923 11.9913C30.4207 13.3197 31.167 15.1214 31.167 17C31.167 18.8786 30.4207 20.6803 29.0923 22.0087C27.7639 23.3371 25.9623 24.0833 24.0837 24.0833H9.91699C8.03837 24.0833 6.2367 23.3371 4.90832 22.0087C3.57993 20.6803 2.83366 18.8786 2.83366 17C2.83366 15.1214 3.57993 13.3197 4.90832 11.9913C6.2367 10.6629 8.03837 9.91667 9.91699 9.91667M24.0837 21.25C25.2108 21.25 26.2918 20.8022 27.0889 20.0052C27.8859 19.2082 28.3337 18.1272 28.3337 17C28.3337 15.8728 27.8859 14.7918 27.0889 13.9948C26.2918 13.1978 25.2108 12.75 24.0837 12.75C22.9565 12.75 21.8755 13.1978 21.0785 13.9948C20.2814 14.7918 19.8337 15.8728 19.8337 17C19.8337 18.1272 20.2814 19.2082 21.0785 20.0052C21.8755 20.8022 22.9565 21.25 24.0837 21.25Z" fill="#FF9443"/>
</svg>
