<svg width="41" height="41" viewBox="0 0 41 41" fill="none" xmlns="http://www.w3.org/2000/svg">
<path d="M29.0417 11.9584H11.9583C9.69293 11.9584 7.52033 12.8583 5.91845 14.4602C4.31658 16.062 3.41666 18.2346 3.41666 20.5C3.41666 22.7654 4.31658 24.938 5.91845 26.5399C7.52033 28.1418 9.69293 29.0417 11.9583 29.0417H29.0417C31.307 29.0417 33.4797 28.1418 35.0815 26.5399C36.6834 24.938 37.5833 22.7654 37.5833 20.5C37.5833 18.2346 36.6834 16.062 35.0815 14.4602C33.4797 12.8583 31.307 11.9584 29.0417 11.9584V11.9584ZM29.0417 25.625C27.6824 25.625 26.3789 25.0851 25.4177 24.124C24.4566 23.1628 23.9167 21.8593 23.9167 20.5C23.9167 19.1408 24.4566 17.8372 25.4177 16.8761C26.3789 15.915 27.6824 15.375 29.0417 15.375C30.4009 15.375 31.7045 15.915 32.6656 16.8761C33.6267 17.8372 34.1667 19.1408 34.1667 20.5C34.1667 21.8593 33.6267 23.1628 32.6656 24.124C31.7045 25.0851 30.4009 25.625 29.0417 25.625Z" fill="black"/>
</svg>
