<svg width="34" height="34" viewBox="0 0 34 34" fill="none" xmlns="http://www.w3.org/2000/svg">
<path d="M24.083 9.91667H9.91634C8.03772 9.91667 6.23605 10.6629 4.90767 11.9913C3.57929 13.3197 2.83301 15.1214 2.83301 17C2.83301 18.8786 3.57929 20.6803 4.90767 22.0087C6.23605 23.3371 8.03772 24.0833 9.91634 24.0833H24.083C25.9616 24.0833 27.7633 23.3371 29.0917 22.0087C30.4201 20.6803 31.1663 18.8786 31.1663 17C31.1663 15.1214 30.4201 13.3197 29.0917 11.9913C27.7633 10.6629 25.9616 9.91667 24.083 9.91667M9.91634 21.25C8.78917 21.25 7.70817 20.8022 6.91114 20.0052C6.11411 19.2082 5.66634 18.1272 5.66634 17C5.66634 15.8728 6.11411 14.7918 6.91114 13.9948C7.70817 13.1978 8.78917 12.75 9.91634 12.75C11.0435 12.75 12.1245 13.1978 12.9215 13.9948C13.7186 14.7918 14.1663 15.8728 14.1663 17C14.1663 18.1272 13.7186 19.2082 12.9215 20.0052C12.1245 20.8022 11.0435 21.25 9.91634 21.25Z" fill="#231F20"/>
</svg>
