<svg width="41" height="41" viewBox="0 0 41 41" fill="none" xmlns="http://www.w3.org/2000/svg">
<path d="M29.0417 11.9584H11.9583C9.69295 11.9584 7.52034 12.8583 5.91847 14.4602C4.31659 16.062 3.41667 18.2346 3.41667 20.5C3.41667 22.7654 4.31659 24.938 5.91847 26.5399C7.52034 28.1418 9.69295 29.0417 11.9583 29.0417H29.0417C31.3071 29.0417 33.4797 28.1418 35.0815 26.5399C36.6834 24.938 37.5833 22.7654 37.5833 20.5C37.5833 18.2346 36.6834 16.062 35.0815 14.4602C33.4797 12.8583 31.3071 11.9584 29.0417 11.9584ZM11.9583 25.625C10.5991 25.625 9.29554 25.0851 8.33442 24.124C7.37329 23.1628 6.83334 21.8593 6.83334 20.5C6.83334 19.1408 7.37329 17.8372 8.33442 16.8761C9.29554 15.915 10.5991 15.375 11.9583 15.375C13.3176 15.375 14.6211 15.915 15.5823 16.8761C16.5434 17.8372 17.0833 19.1408 17.0833 20.5C17.0833 21.8593 16.5434 23.1628 15.5823 24.124C14.6211 25.0851 13.3176 25.625 11.9583 25.625Z" fill="#1E1E1E"/>
</svg>
